<svg class="marks" width="496" height="358" viewBox="0 0 496 358" version="1.1" xmlns="http://www.w3.org/2000/svg" xmlns:xlink="http://www.w3.org/1999/xlink"><rect width="496" height="358" style="fill: white;"></rect><g transform="translate(61,12)"><g class="mark-group role-frame root"><g transform="translate(0,0)"><path class="background" d="M0.5,0.5h400v300h-400Z" style="fill: none; stroke: #ddd;"></path><g><g class="mark-group role-axis"><g transform="translate(0.5,300.5)"><path class="background" d="M0,0h0v0h0Z" style="pointer-events: none; fill: none;"></path><g><g class="mark-rule role-axis-grid" style="pointer-events: none;"><line transform="translate(0,-300)" x2="0" y2="300" style="fill: none; stroke: #ddd; stroke-width: 1; opacity: 1;"></line><line transform="translate(44,-300)" x2="0" y2="300" style="fill: none; stroke: #ddd; stroke-width: 1; opacity: 1;"></line><line transform="translate(89,-300)" x2="0" y2="300" style="fill: none; stroke: #ddd; stroke-width: 1; opacity: 1;"></line><line transform="translate(133,-300)" x2="0" y2="300" style="fill: none; stroke: #ddd; stroke-width: 1; opacity: 1;"></line><line transform="translate(178,-300)" x2="0" y2="300" style="fill: none; stroke: #ddd; stroke-width: 1; opacity: 1;"></line><line transform="translate(222,-300)" x2="0" y2="300" style="fill: none; stroke: #ddd; stroke-width: 1; opacity: 1;"></line><line transform="translate(267,-300)" x2="0" y2="300" style="fill: none; stroke: #ddd; stroke-width: 1; opacity: 1;"></line><line transform="translate(311,-300)" x2="0" y2="300" style="fill: none; stroke: #ddd; stroke-width: 1; opacity: 1;"></line><line transform="translate(356,-300)" x2="0" y2="300" style="fill: none; stroke: #ddd; stroke-width: 1; opacity: 1;"></line><line transform="translate(400,-300)" x2="0" y2="300" style="fill: none; stroke: #ddd; stroke-width: 1; opacity: 1;"></line></g></g><path class="foreground" d="" style="pointer-events: none; display: none; fill: none;"></path></g></g><g class="mark-group role-axis"><g transform="translate(0.5,0.5)"><path class="background" d="M0,0h0v0h0Z" style="pointer-events: none; fill: none;"></path><g><g class="mark-rule role-axis-grid" style="pointer-events: none;"><line transform="translate(0,300)" x2="400" y2="0" style="fill: none; stroke: #ddd; stroke-width: 1; opacity: 1;"></line><line transform="translate(0,273)" x2="400" y2="0" style="fill: none; stroke: #ddd; stroke-width: 1; opacity: 1;"></line><line transform="translate(0,245)" x2="400" y2="0" style="fill: none; stroke: #ddd; stroke-width: 1; opacity: 1;"></line><line transform="translate(0,218)" x2="400" y2="0" style="fill: none; stroke: #ddd; stroke-width: 1; opacity: 1;"></line><line transform="translate(0,191)" x2="400" y2="0" style="fill: none; stroke: #ddd; stroke-width: 1; opacity: 1;"></line><line transform="translate(0,164)" x2="400" y2="0" style="fill: none; stroke: #ddd; stroke-width: 1; opacity: 1;"></line><line transform="translate(0,136)" x2="400" y2="0" style="fill: none; stroke: #ddd; stroke-width: 1; opacity: 1;"></line><line transform="translate(0,109)" x2="400" y2="0" style="fill: none; stroke: #ddd; stroke-width: 1; opacity: 1;"></line><line transform="translate(0,82)" x2="400" y2="0" style="fill: none; stroke: #ddd; stroke-width: 1; opacity: 1;"></line><line transform="translate(0,55)" x2="400" y2="0" style="fill: none; stroke: #ddd; stroke-width: 1; opacity: 1;"></line><line transform="translate(0,27)" x2="400" y2="0" style="fill: none; stroke: #ddd; stroke-width: 1; opacity: 1;"></line><line transform="translate(0,0)" x2="400" y2="0" style="fill: none; stroke: #ddd; stroke-width: 1; opacity: 1;"></line></g></g><path class="foreground" d="" style="pointer-events: none; display: none; fill: none;"></path></g></g><g class="mark-group role-axis"><g transform="translate(0.5,300.5)"><path class="background" d="M0,0h0v0h0Z" style="pointer-events: none; fill: none;"></path><g><g class="mark-rule role-axis-tick" style="pointer-events: none;"><line transform="translate(0,0)" x2="0" y2="5" style="fill: none; stroke: #888; stroke-width: 1; opacity: 1;"></line><line transform="translate(44,0)" x2="0" y2="5" style="fill: none; stroke: #888; stroke-width: 1; opacity: 1;"></line><line transform="translate(89,0)" x2="0" y2="5" style="fill: none; stroke: #888; stroke-width: 1; opacity: 1;"></line><line transform="translate(133,0)" x2="0" y2="5" style="fill: none; stroke: #888; stroke-width: 1; opacity: 1;"></line><line transform="translate(178,0)" x2="0" y2="5" style="fill: none; stroke: #888; stroke-width: 1; opacity: 1;"></line><line transform="translate(222,0)" x2="0" y2="5" style="fill: none; stroke: #888; stroke-width: 1; opacity: 1;"></line><line transform="translate(267,0)" x2="0" y2="5" style="fill: none; stroke: #888; stroke-width: 1; opacity: 1;"></line><line transform="translate(311,0)" x2="0" y2="5" style="fill: none; stroke: #888; stroke-width: 1; opacity: 1;"></line><line transform="translate(356,0)" x2="0" y2="5" style="fill: none; stroke: #888; stroke-width: 1; opacity: 1;"></line><line transform="translate(400,0)" x2="0" y2="5" style="fill: none; stroke: #888; stroke-width: 1; opacity: 1;"></line></g><g class="mark-text role-axis-label" style="pointer-events: none;"><text text-anchor="start" transform="translate(0,19)" style="font-family: sans-serif; font-size: 15px; fill: #000; opacity: 1;">-10</text><text text-anchor="middle" transform="translate(44.44444444444444,19)" style="font-family: sans-serif; font-size: 15px; fill: #000; opacity: 1;">-8</text><text text-anchor="middle" transform="translate(88.88888888888889,19)" style="font-family: sans-serif; font-size: 15px; fill: #000; opacity: 1;">-6</text><text text-anchor="middle" transform="translate(133.33333333333331,19)" style="font-family: sans-serif; font-size: 15px; fill: #000; opacity: 1;">-4</text><text text-anchor="middle" transform="translate(177.77777777777777,19)" style="font-family: sans-serif; font-size: 15px; fill: #000; opacity: 1;">-2</text><text text-anchor="middle" transform="translate(222.22222222222223,19)" style="font-family: sans-serif; font-size: 15px; fill: #000; opacity: 1;">0</text><text text-anchor="middle" transform="translate(266.66666666666663,19)" style="font-family: sans-serif; font-size: 15px; fill: #000; opacity: 1;">2</text><text text-anchor="middle" transform="translate(311.11111111111114,19)" style="font-family: sans-serif; font-size: 15px; fill: #000; opacity: 1;">4</text><text text-anchor="middle" transform="translate(355.55555555555554,19)" style="font-family: sans-serif; font-size: 15px; fill: #000; opacity: 1;">6</text><text text-anchor="end" transform="translate(400,19)" style="font-family: sans-serif; font-size: 15px; fill: #000; opacity: 1;">8</text></g><g class="mark-rule role-axis-domain" style="pointer-events: none;"><line transform="translate(0,0)" x2="400" y2="0" style="fill: none; stroke: #888; stroke-width: 1; opacity: 1;"></line></g><g class="mark-text role-axis-title" style="pointer-events: none;"><text text-anchor="middle" transform="translate(200,38)" style="font-family: sans-serif; font-size: 15px; font-weight: bold; fill: #000; opacity: 1;">Expression in confluent LB plate vs. in exponential growth in LB</text></g></g><path class="foreground" d="" style="pointer-events: none; display: none; fill: none;"></path></g></g><g class="mark-group role-axis"><g transform="translate(0.5,0.5)"><path class="background" d="M0,0h0v0h0Z" style="pointer-events: none; fill: none;"></path><g><g class="mark-rule role-axis-tick" style="pointer-events: none;"><line transform="translate(0,300)" x2="-5" y2="0" style="fill: none; stroke: #888; stroke-width: 1; opacity: 1;"></line><line transform="translate(0,273)" x2="-5" y2="0" style="fill: none; stroke: #888; stroke-width: 1; opacity: 1;"></line><line transform="translate(0,245)" x2="-5" y2="0" style="fill: none; stroke: #888; stroke-width: 1; opacity: 1;"></line><line transform="translate(0,218)" x2="-5" y2="0" style="fill: none; stroke: #888; stroke-width: 1; opacity: 1;"></line><line transform="translate(0,191)" x2="-5" y2="0" style="fill: none; stroke: #888; stroke-width: 1; opacity: 1;"></line><line transform="translate(0,164)" x2="-5" y2="0" style="fill: none; stroke: #888; stroke-width: 1; opacity: 1;"></line><line transform="translate(0,136)" x2="-5" y2="0" style="fill: none; stroke: #888; stroke-width: 1; opacity: 1;"></line><line transform="translate(0,109)" x2="-5" y2="0" style="fill: none; stroke: #888; stroke-width: 1; opacity: 1;"></line><line transform="translate(0,82)" x2="-5" y2="0" style="fill: none; stroke: #888; stroke-width: 1; opacity: 1;"></line><line transform="translate(0,55)" x2="-5" y2="0" style="fill: none; stroke: #888; stroke-width: 1; opacity: 1;"></line><line transform="translate(0,27)" x2="-5" y2="0" style="fill: none; stroke: #888; stroke-width: 1; opacity: 1;"></line><line transform="translate(0,0)" x2="-5" y2="0" style="fill: none; stroke: #888; stroke-width: 1; opacity: 1;"></line></g><g class="mark-text role-axis-label" style="pointer-events: none;"><text text-anchor="end" transform="translate(-7,305)" style="font-family: sans-serif; font-size: 15px; fill: #000; opacity: 1;">0.00</text><text text-anchor="end" transform="translate(-7,277.7272727272727)" style="font-family: sans-serif; font-size: 15px; fill: #000; opacity: 1;">0.05</text><text text-anchor="end" transform="translate(-7,250.45454545454544)" style="font-family: sans-serif; font-size: 15px; fill: #000; opacity: 1;">0.10</text><text text-anchor="end" transform="translate(-7,223.1818181818182)" style="font-family: sans-serif; font-size: 15px; fill: #000; opacity: 1;">0.15</text><text text-anchor="end" transform="translate(-7,195.9090909090909)" style="font-family: sans-serif; font-size: 15px; fill: #000; opacity: 1;">0.20</text><text text-anchor="end" transform="translate(-7,168.63636363636363)" style="font-family: sans-serif; font-size: 15px; fill: #000; opacity: 1;">0.25</text><text text-anchor="end" transform="translate(-7,141.36363636363637)" style="font-family: sans-serif; font-size: 15px; fill: #000; opacity: 1;">0.30</text><text text-anchor="end" transform="translate(-7,114.09090909090912)" style="font-family: sans-serif; font-size: 15px; fill: #000; opacity: 1;">0.35</text><text text-anchor="end" transform="translate(-7,86.81818181818181)" style="font-family: sans-serif; font-size: 15px; fill: #000; opacity: 1;">0.40</text><text text-anchor="end" transform="translate(-7,59.54545454545456)" style="font-family: sans-serif; font-size: 15px; fill: #000; opacity: 1;">0.45</text><text text-anchor="end" transform="translate(-7,32.27272727272728)" style="font-family: sans-serif; font-size: 15px; fill: #000; opacity: 1;">0.50</text><text text-anchor="end" transform="translate(-7,5)" style="font-family: sans-serif; font-size: 15px; fill: #000; opacity: 1;">0.55</text></g><g class="mark-rule role-axis-domain" style="pointer-events: none;"><line transform="translate(0,300)" x2="0" y2="-300" style="fill: none; stroke: #888; stroke-width: 1; opacity: 1;"></line></g><g class="mark-text role-axis-title" style="pointer-events: none;"><text text-anchor="middle" transform="translate(-40.1943359375,150) rotate(-90) translate(0,-3)" style="font-family: sans-serif; font-size: 15px; font-weight: bold; fill: #000; opacity: 1;">Density</text></g></g><path class="foreground" d="" style="pointer-events: none; display: none; fill: none;"></path></g></g><g class="mark-rule role-mark layer_0_marks"><line transform="translate(212.6879935837327,300)" x2="0" y2="-300" style="fill: none; stroke: #4c78a8; stroke-width: 3;"></line><line transform="translate(209.22224525497896,300)" x2="0" y2="-300" style="fill: none; stroke: #f58518; stroke-width: 3;"></line></g><g class="mark-group role-scope layer_1_pathgroup"><g transform="translate(0,0)"><path class="background" d="M0,0h400v300h-400Z" style="fill: none;"></path><g><g class="mark-area role-mark layer_1_marks"><path d="M28.389536247842607,298.98095171496004L42.2258087920774,297.41961255272287L49.1439450641948,296.1686566986754L56.0620813363122,295.93930964374806L59.521149472370894,295.43923227525124L61.25068354040025,294.9263551324913L62.98021760842959,294.2399697247103L66.4392857444883,292.5710625975313L68.16881981251765,291.79140206181546L69.89835388054699,291.21497581234513L73.35742201660568,291.0455896282955L75.08695608463505,291.4849065301532L76.81649015266439,292.1701973061807L80.27555828872308,293.6561396814141L82.00509235675244,294.1323288951716L83.7346264247818,294.27258038494404L97.5708989690166,289.27045126975236L111.40717151325138,290.56478279207647L114.86623964931009,290.7816888244972L116.59577371733944,290.69446408439245L118.3253077853688,290.4023404403171L121.7843759214275,289.18337100100644L125.2434440574862,287.50465781168583L139.07971660172097,282.4623764143097L142.53878473777968,279.89188393164625L145.99785287383838,277.8245390567451L149.45692100989706,277.2078301460829L152.91598914595576,277.32331581673935L156.3750572820145,276.3441947456101L158.10459135004385,275.1345869557408L159.8341254180732,273.5895516403711L163.2931935541319,270.525672672551L166.7522616901906,268.6002960038181L170.21132982624928,267.3712479268549L173.670397962308,265.8244019181385L177.1294660983667,263.8498644505242L180.58853423442537,261.4872687518343L184.0476023704841,258.108271273514L187.50667050654278,253.256311229219L194.42480677866018,241.6742043619796L197.88387491471892,235.47522001675497L201.34294305077756,227.9773459583305L204.80201118683627,217.49837317376284L208.261079322895,199.09551237121806L209.9906133909243,184.178480662184L211.7201474589537,164.06217231732074L213.44968152698303,138.61627620386724L215.17921559501238,109.13950995335078L216.90874966304173,78.61206710840891L218.6382837310711,51.30587619007774L220.36781779910046,31.693555627930394L222.09735186712982,23.02017326302642L225.5564200031885,39.685532924777064L229.01548813924717,83.83386013184555L232.4745562753059,129.38171327630127L235.93362441136458,163.7454290337495L239.39269254742328,186.76492896293774L242.85176068348196,203.54774936397035L246.31082881954063,218.3699996702123L249.76989695559934,231.54630633388334L251.49943102362872,237.02504619764562L253.22896509165807,241.6657914869841L254.95849915968742,245.6333947429988L256.68803322771674,249.23380214891677L260.14710136377545,256.46167551797214L263.60616949983415,264.0168604534674L267.06523763589286,270.71385868479473L270.52430577195156,276.1997424086842L273.98337390801026,281.01263822102635L277.44244204406897,285.03233080717433L279.1719761120983,286.61624728825336L280.9015101801277,287.9073182417127L284.3605783161864,289.7300040955602L287.8196464522451,290.8174248285659L291.2787145883038,291.57608279694034L305.11498713253854,295.6226945408506L318.9512596767733,295.121812377484L325.8693959488907,296.7957492598708L329.3284640849494,297.1550296885471L332.7875322210081,297.0382511472179L339.7056684931256,296.6261237801259L343.1647366291843,296.91727828791295L346.623804765243,297.60755545838873L360.46007730947775,299.66585870262713L374.2963498537125,299.70286824448516L374.2963498537125,300L360.46007730947775,300L346.623804765243,300L343.1647366291843,300L339.7056684931256,300L332.7875322210081,300L329.3284640849494,300L325.8693959488907,300L318.9512596767733,300L305.11498713253854,300L291.2787145883038,300L287.8196464522451,300L284.3605783161864,300L280.9015101801277,300L279.1719761120983,300L277.44244204406897,300L273.98337390801026,300L270.52430577195156,300L267.06523763589286,300L263.60616949983415,300L260.14710136377545,300L256.68803322771674,300L254.95849915968742,300L253.22896509165807,300L251.49943102362872,300L249.76989695559934,300L246.31082881954063,300L242.85176068348196,300L239.39269254742328,300L235.93362441136458,300L232.4745562753059,300L229.01548813924717,300L225.5564200031885,300L222.09735186712982,300L220.36781779910046,300L218.6382837310711,300L216.90874966304173,300L215.17921559501238,300L213.44968152698303,300L211.7201474589537,300L209.9906133909243,300L208.261079322895,300L204.80201118683627,300L201.34294305077756,300L197.88387491471892,300L194.42480677866018,300L187.50667050654278,300L184.0476023704841,300L180.58853423442537,300L177.1294660983667,300L173.670397962308,300L170.21132982624928,300L166.7522616901906,300L163.2931935541319,300L159.8341254180732,300L158.10459135004385,300L156.3750572820145,300L152.91598914595576,300L149.45692100989706,300L145.99785287383838,300L142.53878473777968,300L139.07971660172097,300L125.2434440574862,300L121.7843759214275,300L118.3253077853688,300L116.59577371733944,300L114.86623964931009,300L111.40717151325138,300L97.5708989690166,300L83.7346264247818,300L82.00509235675244,300L80.27555828872308,300L76.81649015266439,300L75.08695608463505,300L73.35742201660568,300L69.89835388054699,300L68.16881981251765,300L66.4392857444883,300L62.98021760842959,300L61.25068354040025,300L59.521149472370894,300L56.0620813363122,300L49.1439450641948,300L42.2258087920774,300L28.389536247842607,300Z" style="fill: #4c78a8; opacity: 0.35;"></path></g></g><path class="foreground" d="" style="display: none; fill: none;"></path></g><g transform="translate(0,0)"><path class="background" d="M0,0h400v300h-400Z" style="fill: none;"></path><g><g class="mark-area role-mark layer_1_marks"><path d="M30.015128265918595,296.7817463951795L36.56568051125401,294.0577781631049L38.203318572587875,293.6573468476016L39.84095663392174,293.4648954822374L43.116232756589426,293.7382028921727L49.666785001924865,295.7640563938255L52.94206112459258,296.4919727824893L54.579699185926444,296.63002301381243L56.2173372472603,296.6140558728824L69.31844173793115,294.611128389936L82.41954622860202,291.812076239541L95.52065071927287,288.4591911427866L97.15828878060671,288.3840101438001L98.79592684194056,288.50294098471187L102.07120296460828,289.2827132846422L105.346479087276,290.3900591428267L108.62175520994369,291.06333331296725L110.25939327127756,291.02025471190217L111.89703133261142,290.66974607540504L113.53466939394528,290.0223614157803L115.17230745527914,289.1237917725299L121.72285970061456,284.34620238557284L128.27341194595,279.6938041671263L129.91105000728385,278.75025076103185L131.54868806861774,277.9879358674132L133.1863261299516,277.4621346430825L134.82396419128543,277.2094961733135L138.09924031395312,277.4812417308267L141.37451643662084,278.2691011150228L144.64979255928856,278.57359288803013L147.92506868195625,277.60796176625297L151.20034480462397,275.3842969121723L154.47562092729171,272.7543892586253L157.7508970499594,270.893596267881L161.0261731726271,270.4963305941961L164.30144929529482,271.1526247871822L165.9390873566287,271.45285404693533L167.57672541796254,271.45470305864825L170.85200154063028,269.9295085561151L174.12727766329797,266.0967045925266L180.67782990863336,255.17848936289343L183.9531060313011,250.3543958102266L187.22838215396882,246.27564532329413L190.50365827663651,242.18096140725768L192.1412963379704,239.80270482559155L193.77893439930426,237.04497006492772L195.4165724606381,233.81171930284063L197.05421052197198,230.01755188399042L198.69184858330584,225.568592671213L200.32948664463967,220.33877742382356L201.9671247059735,214.15097525991717L203.6047627673074,206.77369134060552L205.24240082864128,197.9426846843103L206.8800388899751,187.41258131402074L208.51767695130897,175.0363856519753L210.15531501264283,160.861012548707L211.7929530739767,145.21632056902666L213.43059113531052,128.76753054362464L216.70586725797824,97.63075796420677L219.98114338064596,76.97489856092521L223.25641950331368,73.84963763131677L226.5316956259814,88.15873140618585L228.16933368731523,99.91014951464422L229.8069717486491,113.27817989823694L231.44460980998298,127.23484772797319L233.0822478713168,140.95600491173806L234.71988593265064,153.8776714206427L236.35752399398453,165.69345750522953L237.99516205531842,176.3119257817852L239.63280011665225,185.795202459917L242.90807623932,202.00465402743419L246.18335236198766,215.76466969638076L249.45862848465535,228.152121260529L252.7339046073231,239.53307479915875L256.0091807299908,249.70707142612181L259.28445685265854,258.3345801315923L262.5597329753262,265.3411470335741L265.8350090979939,271.00489815571063L267.4726471593278,273.47033676894347L269.1102852206617,275.76185340919L272.3855613433294,279.963003225403L275.6608374659971,283.6993284900433L278.9361135886648,286.7625803407433L282.21138971133246,288.8540085976571L285.48666583400023,289.95472628720415L292.0372180793356,291.1626281269563L305.1383225700065,296.48935930864707L318.2394270606773,297.2391543139155L324.7899793060128,298.12513514777004L328.0652554286805,298.3030670314487L331.34053155134825,298.05360027149896L337.8910837966837,297.11699298157407L341.16635991935135,297.13218471773337L344.441636042019,297.60007172775664L350.99218828735445,298.79140926733356L357.54274053268995,299.2717992641901L357.54274053268995,300L350.99218828735445,300L344.441636042019,300L341.16635991935135,300L337.8910837966837,300L331.34053155134825,300L328.0652554286805,300L324.7899793060128,300L318.2394270606773,300L305.1383225700065,300L292.0372180793356,300L285.48666583400023,300L282.21138971133246,300L278.9361135886648,300L275.6608374659971,300L272.3855613433294,300L269.1102852206617,300L267.4726471593278,300L265.8350090979939,300L262.5597329753262,300L259.28445685265854,300L256.0091807299908,300L252.7339046073231,300L249.45862848465535,300L246.18335236198766,300L242.90807623932,300L239.63280011665225,300L237.99516205531842,300L236.35752399398453,300L234.71988593265064,300L233.0822478713168,300L231.44460980998298,300L229.8069717486491,300L228.16933368731523,300L226.5316956259814,300L223.25641950331368,300L219.98114338064596,300L216.70586725797824,300L213.43059113531052,300L211.7929530739767,300L210.15531501264283,300L208.51767695130897,300L206.8800388899751,300L205.24240082864128,300L203.6047627673074,300L201.9671247059735,300L200.32948664463967,300L198.69184858330584,300L197.05421052197198,300L195.4165724606381,300L193.77893439930426,300L192.1412963379704,300L190.50365827663651,300L187.22838215396882,300L183.9531060313011,300L180.67782990863336,300L174.12727766329797,300L170.85200154063028,300L167.57672541796254,300L165.9390873566287,300L164.30144929529482,300L161.0261731726271,300L157.7508970499594,300L154.47562092729171,300L151.20034480462397,300L147.92506868195625,300L144.64979255928856,300L141.37451643662084,300L138.09924031395312,300L134.82396419128543,300L133.1863261299516,300L131.54868806861774,300L129.91105000728385,300L128.27341194595,300L121.72285970061456,300L115.17230745527914,300L113.53466939394528,300L111.89703133261142,300L110.25939327127756,300L108.62175520994369,300L105.346479087276,300L102.07120296460828,300L98.79592684194056,300L97.15828878060671,300L95.52065071927287,300L82.41954622860202,300L69.31844173793115,300L56.2173372472603,300L54.579699185926444,300L52.94206112459258,300L49.666785001924865,300L43.116232756589426,300L39.84095663392174,300L38.203318572587875,300L36.56568051125401,300L30.015128265918595,300Z" style="fill: #f58518; opacity: 0.35;"></path></g></g><path class="foreground" d="" style="display: none; fill: none;"></path></g></g><g class="mark-group role-legend"><g transform="translate(287,18)"><path class="background" d="M10.5,0.5L85.5,0.5C91.01915024494,0.5,95.5,4.98084975506,95.5,10.5L95.5,55.5C95.5,61.01915024494,91.01915024494,65.5,85.5,65.5L10.5,65.5C4.98084975506,65.5,0.5,61.01915024494,0.5,55.5L0.5,10.5C0.5,4.98084975506,4.98084975506,0.5,10.5,0.5Z" style="pointer-events: none; fill: white; stroke: gray;"></path><g><g class="mark-group role-legend-entry"><g transform="translate(10,26)"><path class="background" d="M0,0h0v0h0Z" style="pointer-events: none; fill: none;"></path><g><g class="mark-group role-scope"><g transform="translate(0,0)"><path class="background" d="M0,0h74.3642578125v12.5h-74.3642578125Z" style="pointer-events: none; fill: none; opacity: 1;"></path><g><g class="mark-symbol role-legend-symbol" style="pointer-events: none;"><path transform="translate(6,6)" d="M-5,-5h10v10h-10Z" style="fill: #4c78a8; stroke: #4c78a8; stroke-width: 1.5; opacity: 0.35;"></path></g><g class="mark-text role-legend-label" style="pointer-events: none;"><text text-anchor="start" transform="translate(16,9)" style="font-family: sans-serif; font-size: 10px; fill: #000; opacity: 1;">Codirectional</text></g></g><path class="foreground" d="" style="pointer-events: none; display: none; fill: none;"></path></g><g transform="translate(0,16)"><path class="background" d="M0,0h74.3642578125v12.5h-74.3642578125Z" style="pointer-events: none; fill: none; opacity: 1;"></path><g><g class="mark-symbol role-legend-symbol" style="pointer-events: none;"><path transform="translate(6,6)" d="M-5,-5h10v10h-10Z" style="fill: #f58518; stroke: #f58518; stroke-width: 1.5; opacity: 0.35;"></path></g><g class="mark-text role-legend-label" style="pointer-events: none;"><text text-anchor="start" transform="translate(16,9)" style="font-family: sans-serif; font-size: 10px; fill: #000; opacity: 1;">Head-on</text></g></g><path class="foreground" d="" style="pointer-events: none; display: none; fill: none;"></path></g></g></g><path class="foreground" d="" style="pointer-events: none; display: none; fill: none;"></path></g></g><g class="mark-text role-legend-title" style="pointer-events: none;"><text text-anchor="start" transform="translate(10,19)" style="font-family: sans-serif; font-size: 11px; font-weight: bold; fill: #000; opacity: 1;">Direction</text></g></g><path class="foreground" d="" style="pointer-events: none; display: none; fill: none;"></path></g></g></g><path class="foreground" d="" style="display: none; fill: none;"></path></g></g></g></svg>