<svg class="marks" width="446" height="358" viewBox="0 0 446 358" version="1.1" xmlns="http://www.w3.org/2000/svg" xmlns:xlink="http://www.w3.org/1999/xlink"><rect width="446" height="358" style="fill: white;"></rect><g transform="translate(40,12)"><g class="mark-group role-frame root"><g transform="translate(0,0)"><path class="background" d="M0.5,0.5h400v300h-400Z" style="fill: none; stroke: #ddd;"></path><g><g class="mark-group role-axis"><g transform="translate(0.5,300.5)"><path class="background" d="M0,0h0v0h0Z" style="pointer-events: none; fill: none;"></path><g><g class="mark-rule role-axis-grid" style="pointer-events: none;"><line transform="translate(0,-300)" x2="0" y2="300" style="fill: none; stroke: #ddd; stroke-width: 1; opacity: 1;"></line><line transform="translate(33,-300)" x2="0" y2="300" style="fill: none; stroke: #ddd; stroke-width: 1; opacity: 1;"></line><line transform="translate(67,-300)" x2="0" y2="300" style="fill: none; stroke: #ddd; stroke-width: 1; opacity: 1;"></line><line transform="translate(100,-300)" x2="0" y2="300" style="fill: none; stroke: #ddd; stroke-width: 1; opacity: 1;"></line><line transform="translate(133,-300)" x2="0" y2="300" style="fill: none; stroke: #ddd; stroke-width: 1; opacity: 1;"></line><line transform="translate(167,-300)" x2="0" y2="300" style="fill: none; stroke: #ddd; stroke-width: 1; opacity: 1;"></line><line transform="translate(200,-300)" x2="0" y2="300" style="fill: none; stroke: #ddd; stroke-width: 1; opacity: 1;"></line><line transform="translate(233,-300)" x2="0" y2="300" style="fill: none; stroke: #ddd; stroke-width: 1; opacity: 1;"></line><line transform="translate(267,-300)" x2="0" y2="300" style="fill: none; stroke: #ddd; stroke-width: 1; opacity: 1;"></line><line transform="translate(300,-300)" x2="0" y2="300" style="fill: none; stroke: #ddd; stroke-width: 1; opacity: 1;"></line><line transform="translate(333,-300)" x2="0" y2="300" style="fill: none; stroke: #ddd; stroke-width: 1; opacity: 1;"></line><line transform="translate(367,-300)" x2="0" y2="300" style="fill: none; stroke: #ddd; stroke-width: 1; opacity: 1;"></line><line transform="translate(400,-300)" x2="0" y2="300" style="fill: none; stroke: #ddd; stroke-width: 1; opacity: 1;"></line></g></g><path class="foreground" d="" style="pointer-events: none; display: none; fill: none;"></path></g></g><g class="mark-group role-axis"><g transform="translate(0.5,0.5)"><path class="background" d="M0,0h0v0h0Z" style="pointer-events: none; fill: none;"></path><g><g class="mark-rule role-axis-grid" style="pointer-events: none;"><line transform="translate(0,300)" x2="400" y2="0" style="fill: none; stroke: #ddd; stroke-width: 1; opacity: 1;"></line><line transform="translate(0,250)" x2="400" y2="0" style="fill: none; stroke: #ddd; stroke-width: 1; opacity: 1;"></line><line transform="translate(0,200)" x2="400" y2="0" style="fill: none; stroke: #ddd; stroke-width: 1; opacity: 1;"></line><line transform="translate(0,150)" x2="400" y2="0" style="fill: none; stroke: #ddd; stroke-width: 1; opacity: 1;"></line><line transform="translate(0,100)" x2="400" y2="0" style="fill: none; stroke: #ddd; stroke-width: 1; opacity: 1;"></line><line transform="translate(0,50)" x2="400" y2="0" style="fill: none; stroke: #ddd; stroke-width: 1; opacity: 1;"></line><line transform="translate(0,0)" x2="400" y2="0" style="fill: none; stroke: #ddd; stroke-width: 1; opacity: 1;"></line></g></g><path class="foreground" d="" style="pointer-events: none; display: none; fill: none;"></path></g></g><g class="mark-group role-axis"><g transform="translate(0.5,300.5)"><path class="background" d="M0,0h0v0h0Z" style="pointer-events: none; fill: none;"></path><g><g class="mark-rule role-axis-tick" style="pointer-events: none;"><line transform="translate(0,0)" x2="0" y2="5" style="fill: none; stroke: #888; stroke-width: 1; opacity: 1;"></line><line transform="translate(33,0)" x2="0" y2="5" style="fill: none; stroke: #888; stroke-width: 1; opacity: 1;"></line><line transform="translate(67,0)" x2="0" y2="5" style="fill: none; stroke: #888; stroke-width: 1; opacity: 1;"></line><line transform="translate(100,0)" x2="0" y2="5" style="fill: none; stroke: #888; stroke-width: 1; opacity: 1;"></line><line transform="translate(133,0)" x2="0" y2="5" style="fill: none; stroke: #888; stroke-width: 1; opacity: 1;"></line><line transform="translate(167,0)" x2="0" y2="5" style="fill: none; stroke: #888; stroke-width: 1; opacity: 1;"></line><line transform="translate(200,0)" x2="0" y2="5" style="fill: none; stroke: #888; stroke-width: 1; opacity: 1;"></line><line transform="translate(233,0)" x2="0" y2="5" style="fill: none; stroke: #888; stroke-width: 1; opacity: 1;"></line><line transform="translate(267,0)" x2="0" y2="5" style="fill: none; stroke: #888; stroke-width: 1; opacity: 1;"></line><line transform="translate(300,0)" x2="0" y2="5" style="fill: none; stroke: #888; stroke-width: 1; opacity: 1;"></line><line transform="translate(333,0)" x2="0" y2="5" style="fill: none; stroke: #888; stroke-width: 1; opacity: 1;"></line><line transform="translate(367,0)" x2="0" y2="5" style="fill: none; stroke: #888; stroke-width: 1; opacity: 1;"></line><line transform="translate(400,0)" x2="0" y2="5" style="fill: none; stroke: #888; stroke-width: 1; opacity: 1;"></line></g><g class="mark-text role-axis-label" style="pointer-events: none;"><text text-anchor="start" transform="translate(0,19)" style="font-family: sans-serif; font-size: 15px; fill: #000; opacity: 1;">0.00</text><text text-anchor="middle" transform="translate(33.333333333333336,19)" style="font-family: sans-serif; font-size: 15px; fill: #000; opacity: 0;">0.05</text><text text-anchor="middle" transform="translate(66.66666666666667,19)" style="font-family: sans-serif; font-size: 15px; fill: #000; opacity: 1;">0.10</text><text text-anchor="middle" transform="translate(100,19)" style="font-family: sans-serif; font-size: 15px; fill: #000; opacity: 0;">0.15</text><text text-anchor="middle" transform="translate(133.33333333333334,19)" style="font-family: sans-serif; font-size: 15px; fill: #000; opacity: 1;">0.20</text><text text-anchor="middle" transform="translate(166.66666666666669,19)" style="font-family: sans-serif; font-size: 15px; fill: #000; opacity: 0;">0.25</text><text text-anchor="middle" transform="translate(200,19)" style="font-family: sans-serif; font-size: 15px; fill: #000; opacity: 1;">0.30</text><text text-anchor="middle" transform="translate(233.33333333333334,19)" style="font-family: sans-serif; font-size: 15px; fill: #000; opacity: 0;">0.35</text><text text-anchor="middle" transform="translate(266.6666666666667,19)" style="font-family: sans-serif; font-size: 15px; fill: #000; opacity: 1;">0.40</text><text text-anchor="middle" transform="translate(300,19)" style="font-family: sans-serif; font-size: 15px; fill: #000; opacity: 0;">0.45</text><text text-anchor="middle" transform="translate(333.33333333333337,19)" style="font-family: sans-serif; font-size: 15px; fill: #000; opacity: 1;">0.50</text><text text-anchor="middle" transform="translate(366.6666666666667,19)" style="font-family: sans-serif; font-size: 15px; fill: #000; opacity: 0;">0.55</text><text text-anchor="end" transform="translate(400,19)" style="font-family: sans-serif; font-size: 15px; fill: #000; opacity: 1;">0.60</text></g><g class="mark-rule role-axis-domain" style="pointer-events: none;"><line transform="translate(0,0)" x2="400" y2="0" style="fill: none; stroke: #888; stroke-width: 1; opacity: 1;"></line></g><g class="mark-text role-axis-title" style="pointer-events: none;"><text text-anchor="middle" transform="translate(200,38)" style="font-family: sans-serif; font-size: 15px; font-weight: bold; fill: #000; opacity: 1;">Gini coefficient</text></g></g><path class="foreground" d="" style="pointer-events: none; display: none; fill: none;"></path></g></g><g class="mark-group role-axis"><g transform="translate(0.5,0.5)"><path class="background" d="M0,0h0v0h0Z" style="pointer-events: none; fill: none;"></path><g><g class="mark-rule role-axis-tick" style="pointer-events: none;"><line transform="translate(0,300)" x2="-5" y2="0" style="fill: none; stroke: #888; stroke-width: 1; opacity: 1;"></line><line transform="translate(0,250)" x2="-5" y2="0" style="fill: none; stroke: #888; stroke-width: 1; opacity: 1;"></line><line transform="translate(0,200)" x2="-5" y2="0" style="fill: none; stroke: #888; stroke-width: 1; opacity: 1;"></line><line transform="translate(0,150)" x2="-5" y2="0" style="fill: none; stroke: #888; stroke-width: 1; opacity: 1;"></line><line transform="translate(0,100)" x2="-5" y2="0" style="fill: none; stroke: #888; stroke-width: 1; opacity: 1;"></line><line transform="translate(0,50)" x2="-5" y2="0" style="fill: none; stroke: #888; stroke-width: 1; opacity: 1;"></line><line transform="translate(0,0)" x2="-5" y2="0" style="fill: none; stroke: #888; stroke-width: 1; opacity: 1;"></line></g><g class="mark-text role-axis-label" style="pointer-events: none;"><text text-anchor="end" transform="translate(-7,305)" style="font-family: sans-serif; font-size: 15px; fill: #000; opacity: 1;">0</text><text text-anchor="end" transform="translate(-7,255)" style="font-family: sans-serif; font-size: 15px; fill: #000; opacity: 1;">1</text><text text-anchor="end" transform="translate(-7,205.00000000000003)" style="font-family: sans-serif; font-size: 15px; fill: #000; opacity: 1;">2</text><text text-anchor="end" transform="translate(-7,155)" style="font-family: sans-serif; font-size: 15px; fill: #000; opacity: 1;">3</text><text text-anchor="end" transform="translate(-7,105.00000000000001)" style="font-family: sans-serif; font-size: 15px; fill: #000; opacity: 1;">4</text><text text-anchor="end" transform="translate(-7,54.999999999999986)" style="font-family: sans-serif; font-size: 15px; fill: #000; opacity: 1;">5</text><text text-anchor="end" transform="translate(-7,5)" style="font-family: sans-serif; font-size: 15px; fill: #000; opacity: 1;">6</text></g><g class="mark-rule role-axis-domain" style="pointer-events: none;"><line transform="translate(0,300)" x2="0" y2="-300" style="fill: none; stroke: #888; stroke-width: 1; opacity: 1;"></line></g><g class="mark-text role-axis-title" style="pointer-events: none;"><text text-anchor="middle" transform="translate(-19.34228515625,150) rotate(-90) translate(0,-3)" style="font-family: sans-serif; font-size: 15px; font-weight: bold; fill: #000; opacity: 1;">Density</text></g></g><path class="foreground" d="" style="pointer-events: none; display: none; fill: none;"></path></g></g><g class="mark-rule role-mark layer_0_marks"><line transform="translate(156.82778161204055,300)" x2="0" y2="-300" style="fill: none; stroke: #4c78a8; stroke-width: 3;"></line><line transform="translate(164.85009345744047,300)" x2="0" y2="-300" style="fill: none; stroke: #f58518; stroke-width: 3;"></line></g><g class="mark-group role-scope layer_1_pathgroup"><g transform="translate(0,0)"><path class="background" d="M0,0h400v300h-400Z" style="fill: none;"></path><g><g class="mark-area role-mark layer_1_marks"><path d="M32.51380185032114,295.19395340373086L34.23186985242798,294.3642423071258L35.94993785453482,293.4294343914184L37.66800585664164,292.37799355560986L39.38607385874848,291.1962081923454L41.10414186085532,289.86785328687847L42.822209862962154,288.3739273248415L44.540277865069,286.6924980034749L46.258345867175834,284.7986884509456L49.6944818713895,280.2608154565239L51.412549873496346,277.55463238975744L53.13061787560318,274.51314061120155L56.566753879816844,267.2919563221649L60.00288988403051,258.3502359341087L63.43902588824418,247.49876972693306L66.87516189245784,234.64607373500394L73.7474339008852,203.19130990261644L87.49197791773989,124.1820721666814L101.23652193459458,42.80375266857174L104.67265793880824,26.81936580154679L108.10879394302194,14.552057630781789L109.82686194512878,10.08900730034904L111.54492994723562,6.843283274701895L114.98106595144928,4.132149834911569L118.41720195566295,6.335930808284218L121.85333795987661,12.859861206034429L123.57140596198346,17.44709574810154L125.28947396409029,22.730947259954803L128.72560996830396,34.80712268420344L142.47015398515862,86.81895893888675L149.34242599358598,109.08678378431816L156.21469800201334,127.76754210730252L159.65083400622703,135.54337331954696L163.08697001044067,142.19142181690952L166.52310601465433,147.8017631084842L169.95924201886803,152.64801464686747L176.83151402729536,161.84021564335953L180.26765003150902,167.1158504113955L183.7037860357227,173.2420930484717L197.44833005257738,203.40526448366205L200.8844660567911,210.43219048303024L204.32060206100476,216.46113724916026L207.75673806521843,221.25561168907652L211.1928740694321,224.7159635814038L214.62901007364573,226.89418228431418L216.3470780757526,227.56236878565892L218.06514607785945,228.00103311913753L221.50128208207315,228.38897684190417L224.9374180862868,228.49520832780019L228.37355409050048,228.74746557402017L231.80969009471414,229.46011711838443L235.2458260989278,230.76173015382585L238.68196210314147,232.58632981816947L242.11809810735514,234.7323114663316L245.5542341115688,236.96168832712553L248.99037011578247,239.0958977384682L252.42650611999613,241.0706202409954L259.29877812842346,244.80623263653436L262.7349141326372,246.80512783280878L266.17105013685085,248.99980839533734L273.0433221452782,253.8213574532436L276.47945814949185,256.17173946400806L279.91559415370546,258.22535732864617L283.3517301579191,259.80339849428816L285.06979816002604,260.37583171941986L286.78786616213284,260.79569087264696L290.22400216634657,261.1974454395529L293.66013817056023,261.1231471943542L297.0962741747739,260.79046010110596L300.53241017898756,260.4757329415523L303.9685461832012,260.4524956156653L307.4046821874149,260.9307064667574L310.84081819162856,262.0145443190324L314.2769541958422,263.69032312269695L317.7130902000559,265.8461979359538L321.14922620426955,268.3152955967895L334.89377022112427,278.60370538584914L348.638314237979,288.1452782225754L352.07445024219265,290.3255924141533L353.7925182442995,291.3415869181035L355.5105862464063,292.2961026372696L358.94672225062,293.99394091621144L360.66479025272685,294.7294168578979L362.38285825483365,295.388093064122L365.8189942590473,296.4853210174542L367.5370622611542,296.9335895047902L369.255130263261,297.3235251429632L372.69126626747465,297.9571895404875L374.4093342695815,298.2149320294997L376.1274022716883,298.44163892743495L376.1274022716883,300L374.4093342695815,300L372.69126626747465,300L369.255130263261,300L367.5370622611542,300L365.8189942590473,300L362.38285825483365,300L360.66479025272685,300L358.94672225062,300L355.5105862464063,300L353.7925182442995,300L352.07445024219265,300L348.638314237979,300L334.89377022112427,300L321.14922620426955,300L317.7130902000559,300L314.2769541958422,300L310.84081819162856,300L307.4046821874149,300L303.9685461832012,300L300.53241017898756,300L297.0962741747739,300L293.66013817056023,300L290.22400216634657,300L286.78786616213284,300L285.06979816002604,300L283.3517301579191,300L279.91559415370546,300L276.47945814949185,300L273.0433221452782,300L266.17105013685085,300L262.7349141326372,300L259.29877812842346,300L252.42650611999613,300L248.99037011578247,300L245.5542341115688,300L242.11809810735514,300L238.68196210314147,300L235.2458260989278,300L231.80969009471414,300L228.37355409050048,300L224.9374180862868,300L221.50128208207315,300L218.06514607785945,300L216.3470780757526,300L214.62901007364573,300L211.1928740694321,300L207.75673806521843,300L204.32060206100476,300L200.8844660567911,300L197.44833005257738,300L183.7037860357227,300L180.26765003150902,300L176.83151402729536,300L169.95924201886803,300L166.52310601465433,300L163.08697001044067,300L159.65083400622703,300L156.21469800201334,300L149.34242599358598,300L142.47015398515862,300L128.72560996830396,300L125.28947396409029,300L123.57140596198346,300L121.85333795987661,300L118.41720195566295,300L114.98106595144928,300L111.54492994723562,300L109.82686194512878,300L108.10879394302194,300L104.67265793880824,300L101.23652193459458,300L87.49197791773989,300L73.7474339008852,300L66.87516189245784,300L63.43902588824418,300L60.00288988403051,300L56.566753879816844,300L53.13061787560318,300L51.412549873496346,300L49.6944818713895,300L46.258345867175834,300L44.540277865069,300L42.822209862962154,300L41.10414186085532,300L39.38607385874848,300L37.66800585664164,300L35.94993785453482,300L34.23186985242798,300L32.51380185032114,300Z" style="fill: #4c78a8; opacity: 0.35;"></path></g></g><path class="foreground" d="" style="display: none; fill: none;"></path></g><g transform="translate(0,0)"><path class="background" d="M0,0h400v300h-400Z" style="fill: none;"></path><g><g class="mark-area role-mark layer_1_marks"><path d="M48.677011956635596,285.08774444004683L50.29385654740306,283.2379668618711L51.91070113817051,281.1986356440727L55.144390319705415,276.4802250757191L56.76123491047288,273.7625158382613L58.37807950124033,270.7783070953437L61.611768682775235,263.92378734741794L64.84545786431015,255.74274066616073L68.07914704584506,246.07197593656235L74.54652540891487,221.7923703869215L87.48128213505451,154.81492456200652L100.4160388611942,82.73133975711016L106.883417224264,56.550729696438204L110.1171064057989,47.610253627921985L111.73395099656635,44.26493575819125L113.35079558733383,41.67170208945043L114.96764017810128,39.81810031037094L116.58448476886873,38.68140718509845L118.2013293596362,38.229758347489316L119.81817395040363,38.423483857836516L123.05186313193855,40.55826717615668L124.66870772270599,42.39450950225091L126.28555231347347,44.66952950479898L127.90239690424092,47.32717002570938L129.51924149500837,50.312118880338005L132.7529306765433,57.05295768070266L139.2203090396131,72.32485387676485L152.15506576575274,103.031459180565L165.08982249189236,128.9805042006088L178.02457921803204,152.47915430083356L190.95933594417167,175.9289782664697L194.19302512570655,181.31332531532L197.42671430724147,186.27495578111947L200.6604034887764,190.7252143747675L202.27724807954382,192.74248408149106L203.89409267031132,194.6190579270968L205.5109372610788,196.357696456172L207.1277818518462,197.96464745055005L208.74462644261368,199.44949644101916L210.36147103338118,200.82489236328774L211.9783156241486,202.10615945434077L213.59516021491606,203.31081034759688L216.82884939645098,205.56779151096623L220.06253857798592,207.75683279391865L221.67938316875336,208.87527008005017L223.29622775952078,210.033476870878L226.5299169410557,212.52750095011748L228.14676153182313,213.885333539837L229.7636061225906,215.32629528333953L231.38045071335807,216.85295235228256L232.9972953041255,218.46430734227144L236.2309844856604,221.91994298114562L242.6983628487302,229.45101882246013L249.16574121180003,236.94264051402035L250.7825858025675,238.6753377136563L252.39943039333497,240.3194581297683L254.0162749841024,241.8616046901418L255.63311957486988,243.2905371358481L257.2499641656373,244.59739886690835L258.8668087564048,245.77587166484585L260.48365334717226,246.82225854923382L262.10049793793974,247.73549642683105L263.71734252870715,248.51710141094406L265.3341871194746,249.1710508362027L266.9510317102421,249.70360716458555L268.5678763010095,250.12309022876056L270.18472089177703,250.43960559200283L271.8015654825445,250.66473816477003L273.4184100733119,250.81122149700934L275.03525466407933,250.89259421323638L278.2689438456143,250.91613331263807L279.8857884363817,250.88637257219705L281.50263302714916,250.84706094322206L283.11947761791663,250.81099321455252L284.73632220868404,250.79008430164694L286.3531667994515,250.79523201139065L287.970011390219,250.8362291354381L289.58685598098646,250.92172110406472L291.2037005717539,251.05920270727822L292.8205451625214,251.2550453259105L294.4373897532888,251.51454490942268L296.0542343440563,251.84198069710433L297.67107893482375,252.24067540925273L299.28792352559117,252.71304923286962L300.90476811635864,253.2606621959298L304.1384572978935,254.58369873330034L305.75530188866094,255.35812491091298L307.3721464794284,256.20579243487964L308.9889910701959,257.12414561295645L310.60583566096335,258.10980102009097L312.2226802517308,259.15855919791284L313.8395248424983,260.2654337650755L315.4563694332657,261.4247017189434L317.0732140240332,262.62997674103195L320.3069032055681,265.1502827301505L333.2416599317077,275.57140986615013L336.4753491132426,277.9803078990901L338.09219370401007,279.1259989014161L339.70903829477754,280.2284062251043L341.325882885545,281.2854862192324L342.9427274763125,282.29601314472256L344.55957206707996,283.25954691915206L346.17641665784737,284.1763843638741L347.79326124861484,285.0474950116551L349.41010583938225,285.87444278978717L351.0269504301497,286.6592952697347L352.64379502091714,287.4045226507881L354.2606396116846,288.1128891770595L355.8774842024521,288.78734021140167L357.4943287932195,289.43088863525344L359.11117338398697,290.04650454135316L360.7280179747545,290.6370122804535L362.3448625655219,291.20499877735693L363.9617071562894,291.7527366340808L365.57855174705685,292.2821249028104L367.19539633782426,292.79464957628176L368.81224092859173,293.29136486519695L370.4290855193592,293.7728952806702L372.0459301101267,294.23945748937564L372.0459301101267,300L370.4290855193592,300L368.81224092859173,300L367.19539633782426,300L365.57855174705685,300L363.9617071562894,300L362.3448625655219,300L360.7280179747545,300L359.11117338398697,300L357.4943287932195,300L355.8774842024521,300L354.2606396116846,300L352.64379502091714,300L351.0269504301497,300L349.41010583938225,300L347.79326124861484,300L346.17641665784737,300L344.55957206707996,300L342.9427274763125,300L341.325882885545,300L339.70903829477754,300L338.09219370401007,300L336.4753491132426,300L333.2416599317077,300L320.3069032055681,300L317.0732140240332,300L315.4563694332657,300L313.8395248424983,300L312.2226802517308,300L310.60583566096335,300L308.9889910701959,300L307.3721464794284,300L305.75530188866094,300L304.1384572978935,300L300.90476811635864,300L299.28792352559117,300L297.67107893482375,300L296.0542343440563,300L294.4373897532888,300L292.8205451625214,300L291.2037005717539,300L289.58685598098646,300L287.970011390219,300L286.3531667994515,300L284.73632220868404,300L283.11947761791663,300L281.50263302714916,300L279.8857884363817,300L278.2689438456143,300L275.03525466407933,300L273.4184100733119,300L271.8015654825445,300L270.18472089177703,300L268.5678763010095,300L266.9510317102421,300L265.3341871194746,300L263.71734252870715,300L262.10049793793974,300L260.48365334717226,300L258.8668087564048,300L257.2499641656373,300L255.63311957486988,300L254.0162749841024,300L252.39943039333497,300L250.7825858025675,300L249.16574121180003,300L242.6983628487302,300L236.2309844856604,300L232.9972953041255,300L231.38045071335807,300L229.7636061225906,300L228.14676153182313,300L226.5299169410557,300L223.29622775952078,300L221.67938316875336,300L220.06253857798592,300L216.82884939645098,300L213.59516021491606,300L211.9783156241486,300L210.36147103338118,300L208.74462644261368,300L207.1277818518462,300L205.5109372610788,300L203.89409267031132,300L202.27724807954382,300L200.6604034887764,300L197.42671430724147,300L194.19302512570655,300L190.95933594417167,300L178.02457921803204,300L165.08982249189236,300L152.15506576575274,300L139.2203090396131,300L132.7529306765433,300L129.51924149500837,300L127.90239690424092,300L126.28555231347347,300L124.66870772270599,300L123.05186313193855,300L119.81817395040363,300L118.2013293596362,300L116.58448476886873,300L114.96764017810128,300L113.35079558733383,300L111.73395099656635,300L110.1171064057989,300L106.883417224264,300L100.4160388611942,300L87.48128213505451,300L74.54652540891487,300L68.07914704584506,300L64.84545786431015,300L61.611768682775235,300L58.37807950124033,300L56.76123491047288,300L55.144390319705415,300L51.91070113817051,300L50.29385654740306,300L48.677011956635596,300Z" style="fill: #f58518; opacity: 0.35;"></path></g></g><path class="foreground" d="" style="display: none; fill: none;"></path></g></g><g class="mark-group role-legend"><g transform="translate(287,18)"><path class="background" d="M10.5,0.5L85.5,0.5C91.01915024494,0.5,95.5,4.98084975506,95.5,10.5L95.5,55.5C95.5,61.01915024494,91.01915024494,65.5,85.5,65.5L10.5,65.5C4.98084975506,65.5,0.5,61.01915024494,0.5,55.5L0.5,10.5C0.5,4.98084975506,4.98084975506,0.5,10.5,0.5Z" style="pointer-events: none; fill: white; stroke: gray;"></path><g><g class="mark-group role-legend-entry"><g transform="translate(10,26)"><path class="background" d="M0,0h0v0h0Z" style="pointer-events: none; fill: none;"></path><g><g class="mark-group role-scope"><g transform="translate(0,0)"><path class="background" d="M0,0h74.3642578125v12.5h-74.3642578125Z" style="pointer-events: none; fill: none; opacity: 1;"></path><g><g class="mark-symbol role-legend-symbol" style="pointer-events: none;"><path transform="translate(6,6)" d="M-5,-5h10v10h-10Z" style="fill: #4c78a8; stroke: #4c78a8; stroke-width: 1.5; opacity: 0.35;"></path></g><g class="mark-text role-legend-label" style="pointer-events: none;"><text text-anchor="start" transform="translate(16,9)" style="font-family: sans-serif; font-size: 10px; fill: #000; opacity: 1;">Codirectional</text></g></g><path class="foreground" d="" style="pointer-events: none; display: none; fill: none;"></path></g><g transform="translate(0,16)"><path class="background" d="M0,0h74.3642578125v12.5h-74.3642578125Z" style="pointer-events: none; fill: none; opacity: 1;"></path><g><g class="mark-symbol role-legend-symbol" style="pointer-events: none;"><path transform="translate(6,6)" d="M-5,-5h10v10h-10Z" style="fill: #f58518; stroke: #f58518; stroke-width: 1.5; opacity: 0.35;"></path></g><g class="mark-text role-legend-label" style="pointer-events: none;"><text text-anchor="start" transform="translate(16,9)" style="font-family: sans-serif; font-size: 10px; fill: #000; opacity: 1;">Head-on</text></g></g><path class="foreground" d="" style="pointer-events: none; display: none; fill: none;"></path></g></g></g><path class="foreground" d="" style="pointer-events: none; display: none; fill: none;"></path></g></g><g class="mark-text role-legend-title" style="pointer-events: none;"><text text-anchor="start" transform="translate(10,19)" style="font-family: sans-serif; font-size: 11px; font-weight: bold; fill: #000; opacity: 1;">Direction</text></g></g><path class="foreground" d="" style="pointer-events: none; display: none; fill: none;"></path></g></g></g><path class="foreground" d="" style="display: none; fill: none;"></path></g></g></g></svg>