<svg class="marks" width="498" height="358" viewBox="0 0 498 358" version="1.1" xmlns="http://www.w3.org/2000/svg" xmlns:xlink="http://www.w3.org/1999/xlink"><rect width="498" height="358" style="fill: white;"></rect><g transform="translate(61,12)"><g class="mark-group role-frame root"><g transform="translate(0,0)"><path class="background" d="M0.5,0.5h400v300h-400Z" style="fill: none; stroke: #ddd;"></path><g><g class="mark-group role-axis"><g transform="translate(0.5,300.5)"><path class="background" d="M0,0h0v0h0Z" style="pointer-events: none; fill: none;"></path><g><g class="mark-rule role-axis-grid" style="pointer-events: none;"><line transform="translate(0,-300)" x2="0" y2="300" style="fill: none; stroke: #ddd; stroke-width: 1; opacity: 1;"></line><line transform="translate(44,-300)" x2="0" y2="300" style="fill: none; stroke: #ddd; stroke-width: 1; opacity: 1;"></line><line transform="translate(89,-300)" x2="0" y2="300" style="fill: none; stroke: #ddd; stroke-width: 1; opacity: 1;"></line><line transform="translate(133,-300)" x2="0" y2="300" style="fill: none; stroke: #ddd; stroke-width: 1; opacity: 1;"></line><line transform="translate(178,-300)" x2="0" y2="300" style="fill: none; stroke: #ddd; stroke-width: 1; opacity: 1;"></line><line transform="translate(222,-300)" x2="0" y2="300" style="fill: none; stroke: #ddd; stroke-width: 1; opacity: 1;"></line><line transform="translate(267,-300)" x2="0" y2="300" style="fill: none; stroke: #ddd; stroke-width: 1; opacity: 1;"></line><line transform="translate(311,-300)" x2="0" y2="300" style="fill: none; stroke: #ddd; stroke-width: 1; opacity: 1;"></line><line transform="translate(356,-300)" x2="0" y2="300" style="fill: none; stroke: #ddd; stroke-width: 1; opacity: 1;"></line><line transform="translate(400,-300)" x2="0" y2="300" style="fill: none; stroke: #ddd; stroke-width: 1; opacity: 1;"></line></g></g><path class="foreground" d="" style="pointer-events: none; display: none; fill: none;"></path></g></g><g class="mark-group role-axis"><g transform="translate(0.5,0.5)"><path class="background" d="M0,0h0v0h0Z" style="pointer-events: none; fill: none;"></path><g><g class="mark-rule role-axis-grid" style="pointer-events: none;"><line transform="translate(0,300)" x2="400" y2="0" style="fill: none; stroke: #ddd; stroke-width: 1; opacity: 1;"></line><line transform="translate(0,270)" x2="400" y2="0" style="fill: none; stroke: #ddd; stroke-width: 1; opacity: 1;"></line><line transform="translate(0,240)" x2="400" y2="0" style="fill: none; stroke: #ddd; stroke-width: 1; opacity: 1;"></line><line transform="translate(0,210)" x2="400" y2="0" style="fill: none; stroke: #ddd; stroke-width: 1; opacity: 1;"></line><line transform="translate(0,180)" x2="400" y2="0" style="fill: none; stroke: #ddd; stroke-width: 1; opacity: 1;"></line><line transform="translate(0,150)" x2="400" y2="0" style="fill: none; stroke: #ddd; stroke-width: 1; opacity: 1;"></line><line transform="translate(0,120)" x2="400" y2="0" style="fill: none; stroke: #ddd; stroke-width: 1; opacity: 1;"></line><line transform="translate(0,90)" x2="400" y2="0" style="fill: none; stroke: #ddd; stroke-width: 1; opacity: 1;"></line><line transform="translate(0,60)" x2="400" y2="0" style="fill: none; stroke: #ddd; stroke-width: 1; opacity: 1;"></line><line transform="translate(0,30)" x2="400" y2="0" style="fill: none; stroke: #ddd; stroke-width: 1; opacity: 1;"></line><line transform="translate(0,0)" x2="400" y2="0" style="fill: none; stroke: #ddd; stroke-width: 1; opacity: 1;"></line></g></g><path class="foreground" d="" style="pointer-events: none; display: none; fill: none;"></path></g></g><g class="mark-group role-axis"><g transform="translate(0.5,300.5)"><path class="background" d="M0,0h0v0h0Z" style="pointer-events: none; fill: none;"></path><g><g class="mark-rule role-axis-tick" style="pointer-events: none;"><line transform="translate(0,0)" x2="0" y2="5" style="fill: none; stroke: #888; stroke-width: 1; opacity: 1;"></line><line transform="translate(44,0)" x2="0" y2="5" style="fill: none; stroke: #888; stroke-width: 1; opacity: 1;"></line><line transform="translate(89,0)" x2="0" y2="5" style="fill: none; stroke: #888; stroke-width: 1; opacity: 1;"></line><line transform="translate(133,0)" x2="0" y2="5" style="fill: none; stroke: #888; stroke-width: 1; opacity: 1;"></line><line transform="translate(178,0)" x2="0" y2="5" style="fill: none; stroke: #888; stroke-width: 1; opacity: 1;"></line><line transform="translate(222,0)" x2="0" y2="5" style="fill: none; stroke: #888; stroke-width: 1; opacity: 1;"></line><line transform="translate(267,0)" x2="0" y2="5" style="fill: none; stroke: #888; stroke-width: 1; opacity: 1;"></line><line transform="translate(311,0)" x2="0" y2="5" style="fill: none; stroke: #888; stroke-width: 1; opacity: 1;"></line><line transform="translate(356,0)" x2="0" y2="5" style="fill: none; stroke: #888; stroke-width: 1; opacity: 1;"></line><line transform="translate(400,0)" x2="0" y2="5" style="fill: none; stroke: #888; stroke-width: 1; opacity: 1;"></line></g><g class="mark-text role-axis-label" style="pointer-events: none;"><text text-anchor="start" transform="translate(0,19)" style="font-family: sans-serif; font-size: 15px; fill: #000; opacity: 1;">-10</text><text text-anchor="middle" transform="translate(44.44444444444444,19)" style="font-family: sans-serif; font-size: 15px; fill: #000; opacity: 1;">-8</text><text text-anchor="middle" transform="translate(88.88888888888889,19)" style="font-family: sans-serif; font-size: 15px; fill: #000; opacity: 1;">-6</text><text text-anchor="middle" transform="translate(133.33333333333331,19)" style="font-family: sans-serif; font-size: 15px; fill: #000; opacity: 1;">-4</text><text text-anchor="middle" transform="translate(177.77777777777777,19)" style="font-family: sans-serif; font-size: 15px; fill: #000; opacity: 1;">-2</text><text text-anchor="middle" transform="translate(222.22222222222223,19)" style="font-family: sans-serif; font-size: 15px; fill: #000; opacity: 1;">0</text><text text-anchor="middle" transform="translate(266.66666666666663,19)" style="font-family: sans-serif; font-size: 15px; fill: #000; opacity: 1;">2</text><text text-anchor="middle" transform="translate(311.11111111111114,19)" style="font-family: sans-serif; font-size: 15px; fill: #000; opacity: 1;">4</text><text text-anchor="middle" transform="translate(355.55555555555554,19)" style="font-family: sans-serif; font-size: 15px; fill: #000; opacity: 1;">6</text><text text-anchor="end" transform="translate(400,19)" style="font-family: sans-serif; font-size: 15px; fill: #000; opacity: 1;">8</text></g><g class="mark-rule role-axis-domain" style="pointer-events: none;"><line transform="translate(0,0)" x2="400" y2="0" style="fill: none; stroke: #888; stroke-width: 1; opacity: 1;"></line></g><g class="mark-text role-axis-title" style="pointer-events: none;"><text text-anchor="middle" transform="translate(200,38)" style="font-family: sans-serif; font-size: 15px; font-weight: bold; fill: #000; opacity: 1;">Expression in individual colonies vs. in exponential growth in LB</text></g></g><path class="foreground" d="" style="pointer-events: none; display: none; fill: none;"></path></g></g><g class="mark-group role-axis"><g transform="translate(0.5,0.5)"><path class="background" d="M0,0h0v0h0Z" style="pointer-events: none; fill: none;"></path><g><g class="mark-rule role-axis-tick" style="pointer-events: none;"><line transform="translate(0,300)" x2="-5" y2="0" style="fill: none; stroke: #888; stroke-width: 1; opacity: 1;"></line><line transform="translate(0,270)" x2="-5" y2="0" style="fill: none; stroke: #888; stroke-width: 1; opacity: 1;"></line><line transform="translate(0,240)" x2="-5" y2="0" style="fill: none; stroke: #888; stroke-width: 1; opacity: 1;"></line><line transform="translate(0,210)" x2="-5" y2="0" style="fill: none; stroke: #888; stroke-width: 1; opacity: 1;"></line><line transform="translate(0,180)" x2="-5" y2="0" style="fill: none; stroke: #888; stroke-width: 1; opacity: 1;"></line><line transform="translate(0,150)" x2="-5" y2="0" style="fill: none; stroke: #888; stroke-width: 1; opacity: 1;"></line><line transform="translate(0,120)" x2="-5" y2="0" style="fill: none; stroke: #888; stroke-width: 1; opacity: 1;"></line><line transform="translate(0,90)" x2="-5" y2="0" style="fill: none; stroke: #888; stroke-width: 1; opacity: 1;"></line><line transform="translate(0,60)" x2="-5" y2="0" style="fill: none; stroke: #888; stroke-width: 1; opacity: 1;"></line><line transform="translate(0,30)" x2="-5" y2="0" style="fill: none; stroke: #888; stroke-width: 1; opacity: 1;"></line><line transform="translate(0,0)" x2="-5" y2="0" style="fill: none; stroke: #888; stroke-width: 1; opacity: 1;"></line></g><g class="mark-text role-axis-label" style="pointer-events: none;"><text text-anchor="end" transform="translate(-7,305)" style="font-family: sans-serif; font-size: 15px; fill: #000; opacity: 1;">0.00</text><text text-anchor="end" transform="translate(-7,275)" style="font-family: sans-serif; font-size: 15px; fill: #000; opacity: 1;">0.05</text><text text-anchor="end" transform="translate(-7,245)" style="font-family: sans-serif; font-size: 15px; fill: #000; opacity: 1;">0.10</text><text text-anchor="end" transform="translate(-7,215)" style="font-family: sans-serif; font-size: 15px; fill: #000; opacity: 1;">0.15</text><text text-anchor="end" transform="translate(-7,185)" style="font-family: sans-serif; font-size: 15px; fill: #000; opacity: 1;">0.20</text><text text-anchor="end" transform="translate(-7,155)" style="font-family: sans-serif; font-size: 15px; fill: #000; opacity: 1;">0.25</text><text text-anchor="end" transform="translate(-7,125)" style="font-family: sans-serif; font-size: 15px; fill: #000; opacity: 1;">0.30</text><text text-anchor="end" transform="translate(-7,95.00000000000001)" style="font-family: sans-serif; font-size: 15px; fill: #000; opacity: 1;">0.35</text><text text-anchor="end" transform="translate(-7,64.99999999999999)" style="font-family: sans-serif; font-size: 15px; fill: #000; opacity: 1;">0.40</text><text text-anchor="end" transform="translate(-7,34.99999999999999)" style="font-family: sans-serif; font-size: 15px; fill: #000; opacity: 1;">0.45</text><text text-anchor="end" transform="translate(-7,5)" style="font-family: sans-serif; font-size: 15px; fill: #000; opacity: 1;">0.50</text></g><g class="mark-rule role-axis-domain" style="pointer-events: none;"><line transform="translate(0,300)" x2="0" y2="-300" style="fill: none; stroke: #888; stroke-width: 1; opacity: 1;"></line></g><g class="mark-text role-axis-title" style="pointer-events: none;"><text text-anchor="middle" transform="translate(-40.1943359375,150) rotate(-90) translate(0,-3)" style="font-family: sans-serif; font-size: 15px; font-weight: bold; fill: #000; opacity: 1;">Density</text></g></g><path class="foreground" d="" style="pointer-events: none; display: none; fill: none;"></path></g></g><g class="mark-rule role-mark layer_0_marks"><line transform="translate(216.6644309406085,300)" x2="0" y2="-300" style="fill: none; stroke: #4c78a8; stroke-width: 3;"></line><line transform="translate(213.26523119296294,300)" x2="0" y2="-300" style="fill: none; stroke: #f58518; stroke-width: 3;"></line></g><g class="mark-group role-scope layer_1_pathgroup"><g transform="translate(0,0)"><path class="background" d="M0,0h400v300h-400Z" style="fill: none;"></path><g><g class="mark-area role-mark layer_1_marks"><path d="M28.977298357464953,298.8036735865914L43.35233577082802,297.2103829505011L50.53985447750955,296.0345153521041L57.7273731841911,295.5664911708231L61.321132537531874,295.0000030341153L64.91489189087264,293.83658865107685L72.10241059755417,290.8238152873985L86.47744801091726,292.49757327629544L90.07120736425802,290.5116718411316L93.66496671759879,288.1611612954436L97.25872607093956,287.15973823479527L99.05560574760996,287.30498759075925L100.85248542428032,287.7509349896643L108.04000413096186,290.09423664905313L111.63376348430263,290.6574017546832L113.43064316097302,290.659979057608L115.22752283764339,290.4279579927539L117.02440251431379,289.9380586891015L118.82128219098418,289.2097541166679L122.41504154432494,287.4065775426445L124.21192122099534,286.5860118204645L126.00880089766571,285.94152800253255L129.60256025100648,285.1867477366478L133.19631960434725,284.78318024512544L136.79007895768802,284.0344662317931L140.3838383110288,282.29436966331485L143.97759766436957,279.92846298380135L147.57135701771034,278.1249913559077L151.1651163710511,277.07604661495355L154.75887572439186,275.54045194355047L158.35263507773263,272.95683294456563L172.72767249109572,263.1114292076221L176.32143184443646,261.7747963181515L179.91519119777726,261.67594113419085L183.50895055111803,261.4527135319635L187.10270990445878,259.36734352869894L190.69646925779955,254.78567097104957L194.29022861114035,248.09438751428308L197.88398796448107,239.9917039280983L201.47774731782184,230.98403475886025L203.27462699449222,226.0805403437341L205.07150667116264,220.676340183948L206.86838634783297,214.31332504672946L208.6652660245034,206.12532046728163L210.46214570117377,194.76916046331937L212.25902537784415,178.62848696403825L214.05590505451454,156.40251133565317L215.85278473118495,127.9768563707654L217.64966440785528,95.20091567955272L219.44654408452573,62.04676091251123L221.24342376119608,33.78963116898015L223.04030343786647,15.357356284407464L224.83718311453686,9.572386320235394L226.63406279120727,16.204416941376266L228.43094246787766,32.32934625089548L230.22782214454804,53.71978097871267L233.8215814978888,97.93700578039288L237.41534085122953,134.15953245334762L241.0091002045703,163.60427242012992L244.60285955791105,188.1627705002552L246.39973923458146,198.02599820327669L248.19661891125185,205.93925268610303L249.99349858792223,211.9892444694673L251.7903782645926,216.60386377961945L255.38413761793336,224.24376738511808L257.1810172946038,228.5498662854015L258.97789697127416,233.62238439565616L260.7747766479446,239.357417581789L262.57165632461493,245.37049258524715L264.36853600128535,251.17183888639053L266.1654156779557,256.36236945526787L267.9622953546261,260.76456632624564L269.7591750312965,264.44015124542847L273.35293438463725,270.5102882246694L276.946693737978,276.0795201208973L280.54045309131885,281.1392376545674L284.13421244465957,284.85168309600755L287.72797179800034,286.9968943365989L302.1030092113634,291.45516813712436L309.290527918045,293.59044665277645L316.47804662472646,294.9352248491491L323.665565331408,294.8485303445503L330.85308403808955,295.4504651980468L345.22812145145264,296.6403581958665L359.6031588648157,297.9875481246241L373.9781962781788,299.7501917947846L388.35323369154185,299.67878523551195L388.35323369154185,300L373.9781962781788,300L359.6031588648157,300L345.22812145145264,300L330.85308403808955,300L323.665565331408,300L316.47804662472646,300L309.290527918045,300L302.1030092113634,300L287.72797179800034,300L284.13421244465957,300L280.54045309131885,300L276.946693737978,300L273.35293438463725,300L269.7591750312965,300L267.9622953546261,300L266.1654156779557,300L264.36853600128535,300L262.57165632461493,300L260.7747766479446,300L258.97789697127416,300L257.1810172946038,300L255.38413761793336,300L251.7903782645926,300L249.99349858792223,300L248.19661891125185,300L246.39973923458146,300L244.60285955791105,300L241.0091002045703,300L237.41534085122953,300L233.8215814978888,300L230.22782214454804,300L228.43094246787766,300L226.63406279120727,300L224.83718311453686,300L223.04030343786647,300L221.24342376119608,300L219.44654408452573,300L217.64966440785528,300L215.85278473118495,300L214.05590505451454,300L212.25902537784415,300L210.46214570117377,300L208.6652660245034,300L206.86838634783297,300L205.07150667116264,300L203.27462699449222,300L201.47774731782184,300L197.88398796448107,300L194.29022861114035,300L190.69646925779955,300L187.10270990445878,300L183.50895055111803,300L179.91519119777726,300L176.32143184443646,300L172.72767249109572,300L158.35263507773263,300L154.75887572439186,300L151.1651163710511,300L147.57135701771034,300L143.97759766436957,300L140.3838383110288,300L136.79007895768802,300L133.19631960434725,300L129.60256025100648,300L126.00880089766571,300L124.21192122099534,300L122.41504154432494,300L118.82128219098418,300L117.02440251431379,300L115.22752283764339,300L113.43064316097302,300L111.63376348430263,300L108.04000413096186,300L100.85248542428032,300L99.05560574760996,300L97.25872607093956,300L93.66496671759879,300L90.07120736425802,300L86.47744801091726,300L72.10241059755417,300L64.91489189087264,300L61.321132537531874,300L57.7273731841911,300L50.53985447750955,300L43.35233577082802,300L28.977298357464953,300Z" style="fill: #4c78a8; opacity: 0.35;"></path></g></g><path class="foreground" d="" style="display: none; fill: none;"></path></g><g transform="translate(0,0)"><path class="background" d="M0,0h400v300h-400Z" style="fill: none;"></path><g><g class="mark-area role-mark layer_1_marks"><path d="M28.35279540013873,297.17673179989214L35.284579558968964,294.42873063027815L38.75047163838406,293.51191556032353L40.48341767809163,293.3356093235496L42.21636371779919,293.37630877390524L56.079932035459635,296.5417870012825L59.54582411487475,296.2779537955097L63.011716194289846,295.51150879382755L69.94350035312009,293.69298818457986L83.80706867078054,290.8340379705512L97.67063698844099,288.0771617581307L111.53420530610143,289.7513311009411L113.26715134580898,289.43313167761136L115.00009738551653,288.8196908389021L118.46598946493165,286.8210967291859L125.39777362376189,281.7069022435951L128.86366570317702,279.7570249458954L132.32955778259213,278.56552247956023L139.26134194142236,277.3127815813635L153.12491025908278,272.6577461292534L166.98847857674323,268.38252288990446L168.72142461645078,267.4495573469721L170.45437065615835,266.16697586785733L173.92026273557346,262.46993492824384L180.85204689440368,253.0787288041554L182.58499293411126,251.099843015774L184.3179389738188,249.42860234770626L187.7838310532339,246.85413668957642L191.249723132649,244.56297799170127L194.7156152120641,241.34510421988614L196.44856125177168,238.9847926499676L198.18150729147925,235.89421093686116L199.9144533311868,231.87271327201375L201.6473993708944,226.6822271448662L203.38034541060193,220.04704404238086L205.11329145030945,211.6738489218371L206.84623749001702,201.29715296912408L208.5791835297246,188.74882910636188L210.31212956943216,174.04207915930635L212.0450756091397,157.45168585802276L213.77802164884727,139.56652483904992L215.51096768855484,121.2902586782832L217.2439137282624,103.77435348812027L218.97685976796998,88.28384254283849L220.70980580767753,76.01656569633248L222.4427518473851,67.91383869762895L225.90864392680015,65.84024630102405L229.3745360062153,80.61446567705359L232.84042808563038,105.1899858449957L236.3063201650455,131.58658765166996L238.03926620475306,143.73559638755856L239.77221224446063,154.7750567944439L241.50515828416817,164.6836796566683L243.23810432387575,173.59873580250436L244.97105036358332,181.74723652041766L246.70399640329083,189.38223581909978L250.16988848270594,203.9620093295059L253.63578056212108,218.33728544908354L255.3687266018286,225.4251351771427L257.1016726415362,232.3129519266153L258.83461868124374,238.86523671963246L260.5675647209513,244.9486930189555L262.3005107606589,250.45315617977946L264.0334568003664,255.30613289272551L267.4993488797815,262.9996373077729L269.23229491948905,265.9310879433468L270.9652409591966,268.38469782234847L277.8970251180268,276.19572985237517L284.8288092768571,284.39444859246055L286.56175531656464,286.20027241613263L288.29470135627224,287.7051892007067L290.0276473959797,288.85256369368744L291.76059343568727,289.6379883255371L305.6241617533478,292.01374870014007L312.55594591217795,294.3458224255718L319.4877300710082,295.5177331290315L333.3512983886687,297.8514030329138L347.21486670632913,297.0920342839841L361.07843502398947,299.20363846564385L374.94200334165004,299.369006827382L374.94200334165004,300L361.07843502398947,300L347.21486670632913,300L333.3512983886687,300L319.4877300710082,300L312.55594591217795,300L305.6241617533478,300L291.76059343568727,300L290.0276473959797,300L288.29470135627224,300L286.56175531656464,300L284.8288092768571,300L277.8970251180268,300L270.9652409591966,300L269.23229491948905,300L267.4993488797815,300L264.0334568003664,300L262.3005107606589,300L260.5675647209513,300L258.83461868124374,300L257.1016726415362,300L255.3687266018286,300L253.63578056212108,300L250.16988848270594,300L246.70399640329083,300L244.97105036358332,300L243.23810432387575,300L241.50515828416817,300L239.77221224446063,300L238.03926620475306,300L236.3063201650455,300L232.84042808563038,300L229.3745360062153,300L225.90864392680015,300L222.4427518473851,300L220.70980580767753,300L218.97685976796998,300L217.2439137282624,300L215.51096768855484,300L213.77802164884727,300L212.0450756091397,300L210.31212956943216,300L208.5791835297246,300L206.84623749001702,300L205.11329145030945,300L203.38034541060193,300L201.6473993708944,300L199.9144533311868,300L198.18150729147925,300L196.44856125177168,300L194.7156152120641,300L191.249723132649,300L187.7838310532339,300L184.3179389738188,300L182.58499293411126,300L180.85204689440368,300L173.92026273557346,300L170.45437065615835,300L168.72142461645078,300L166.98847857674323,300L153.12491025908278,300L139.26134194142236,300L132.32955778259213,300L128.86366570317702,300L125.39777362376189,300L118.46598946493165,300L115.00009738551653,300L113.26715134580898,300L111.53420530610143,300L97.67063698844099,300L83.80706867078054,300L69.94350035312009,300L63.011716194289846,300L59.54582411487475,300L56.079932035459635,300L42.21636371779919,300L40.48341767809163,300L38.75047163838406,300L35.284579558968964,300L28.35279540013873,300Z" style="fill: #f58518; opacity: 0.35;"></path></g></g><path class="foreground" d="" style="display: none; fill: none;"></path></g></g><g class="mark-group role-legend"><g transform="translate(287,18)"><path class="background" d="M10.5,0.5L85.5,0.5C91.01915024494,0.5,95.5,4.98084975506,95.5,10.5L95.5,55.5C95.5,61.01915024494,91.01915024494,65.5,85.5,65.5L10.5,65.5C4.98084975506,65.5,0.5,61.01915024494,0.5,55.5L0.5,10.5C0.5,4.98084975506,4.98084975506,0.5,10.5,0.5Z" style="pointer-events: none; fill: white; stroke: gray;"></path><g><g class="mark-group role-legend-entry"><g transform="translate(10,26)"><path class="background" d="M0,0h0v0h0Z" style="pointer-events: none; fill: none;"></path><g><g class="mark-group role-scope"><g transform="translate(0,0)"><path class="background" d="M0,0h74.3642578125v12.5h-74.3642578125Z" style="pointer-events: none; fill: none; opacity: 1;"></path><g><g class="mark-symbol role-legend-symbol" style="pointer-events: none;"><path transform="translate(6,6)" d="M-5,-5h10v10h-10Z" style="fill: #4c78a8; stroke: #4c78a8; stroke-width: 1.5; opacity: 0.35;"></path></g><g class="mark-text role-legend-label" style="pointer-events: none;"><text text-anchor="start" transform="translate(16,9)" style="font-family: sans-serif; font-size: 10px; fill: #000; opacity: 1;">Codirectional</text></g></g><path class="foreground" d="" style="pointer-events: none; display: none; fill: none;"></path></g><g transform="translate(0,16)"><path class="background" d="M0,0h74.3642578125v12.5h-74.3642578125Z" style="pointer-events: none; fill: none; opacity: 1;"></path><g><g class="mark-symbol role-legend-symbol" style="pointer-events: none;"><path transform="translate(6,6)" d="M-5,-5h10v10h-10Z" style="fill: #f58518; stroke: #f58518; stroke-width: 1.5; opacity: 0.35;"></path></g><g class="mark-text role-legend-label" style="pointer-events: none;"><text text-anchor="start" transform="translate(16,9)" style="font-family: sans-serif; font-size: 10px; fill: #000; opacity: 1;">Head-on</text></g></g><path class="foreground" d="" style="pointer-events: none; display: none; fill: none;"></path></g></g></g><path class="foreground" d="" style="pointer-events: none; display: none; fill: none;"></path></g></g><g class="mark-text role-legend-title" style="pointer-events: none;"><text text-anchor="start" transform="translate(10,19)" style="font-family: sans-serif; font-size: 11px; font-weight: bold; fill: #000; opacity: 1;">Direction</text></g></g><path class="foreground" d="" style="pointer-events: none; display: none; fill: none;"></path></g></g></g><path class="foreground" d="" style="display: none; fill: none;"></path></g></g></g></svg>