<svg class="marks" width="467" height="358" viewBox="0 0 467 358" version="1.1" xmlns="http://www.w3.org/2000/svg" xmlns:xlink="http://www.w3.org/1999/xlink"><rect width="467" height="358" style="fill: white;"></rect><g transform="translate(61,12)"><g class="mark-group role-frame root"><g transform="translate(0,0)"><path class="background" d="M0.5,0.5h400v300h-400Z" style="fill: none; stroke: #ddd;"></path><g><g class="mark-group role-axis"><g transform="translate(0.5,300.5)"><path class="background" d="M0,0h0v0h0Z" style="pointer-events: none; fill: none;"></path><g><g class="mark-rule role-axis-grid" style="pointer-events: none;"><line transform="translate(0,-300)" x2="0" y2="300" style="fill: none; stroke: #ddd; stroke-width: 1; opacity: 1;"></line><line transform="translate(50,-300)" x2="0" y2="300" style="fill: none; stroke: #ddd; stroke-width: 1; opacity: 1;"></line><line transform="translate(100,-300)" x2="0" y2="300" style="fill: none; stroke: #ddd; stroke-width: 1; opacity: 1;"></line><line transform="translate(150,-300)" x2="0" y2="300" style="fill: none; stroke: #ddd; stroke-width: 1; opacity: 1;"></line><line transform="translate(200,-300)" x2="0" y2="300" style="fill: none; stroke: #ddd; stroke-width: 1; opacity: 1;"></line><line transform="translate(250,-300)" x2="0" y2="300" style="fill: none; stroke: #ddd; stroke-width: 1; opacity: 1;"></line><line transform="translate(300,-300)" x2="0" y2="300" style="fill: none; stroke: #ddd; stroke-width: 1; opacity: 1;"></line><line transform="translate(350,-300)" x2="0" y2="300" style="fill: none; stroke: #ddd; stroke-width: 1; opacity: 1;"></line><line transform="translate(400,-300)" x2="0" y2="300" style="fill: none; stroke: #ddd; stroke-width: 1; opacity: 1;"></line></g></g><path class="foreground" d="" style="pointer-events: none; display: none; fill: none;"></path></g></g><g class="mark-group role-axis"><g transform="translate(0.5,0.5)"><path class="background" d="M0,0h0v0h0Z" style="pointer-events: none; fill: none;"></path><g><g class="mark-rule role-axis-grid" style="pointer-events: none;"><line transform="translate(0,300)" x2="400" y2="0" style="fill: none; stroke: #ddd; stroke-width: 1; opacity: 1;"></line><line transform="translate(0,270)" x2="400" y2="0" style="fill: none; stroke: #ddd; stroke-width: 1; opacity: 1;"></line><line transform="translate(0,240)" x2="400" y2="0" style="fill: none; stroke: #ddd; stroke-width: 1; opacity: 1;"></line><line transform="translate(0,210)" x2="400" y2="0" style="fill: none; stroke: #ddd; stroke-width: 1; opacity: 1;"></line><line transform="translate(0,180)" x2="400" y2="0" style="fill: none; stroke: #ddd; stroke-width: 1; opacity: 1;"></line><line transform="translate(0,150)" x2="400" y2="0" style="fill: none; stroke: #ddd; stroke-width: 1; opacity: 1;"></line><line transform="translate(0,120)" x2="400" y2="0" style="fill: none; stroke: #ddd; stroke-width: 1; opacity: 1;"></line><line transform="translate(0,90)" x2="400" y2="0" style="fill: none; stroke: #ddd; stroke-width: 1; opacity: 1;"></line><line transform="translate(0,60)" x2="400" y2="0" style="fill: none; stroke: #ddd; stroke-width: 1; opacity: 1;"></line><line transform="translate(0,30)" x2="400" y2="0" style="fill: none; stroke: #ddd; stroke-width: 1; opacity: 1;"></line><line transform="translate(0,0)" x2="400" y2="0" style="fill: none; stroke: #ddd; stroke-width: 1; opacity: 1;"></line></g></g><path class="foreground" d="" style="pointer-events: none; display: none; fill: none;"></path></g></g><g class="mark-group role-axis"><g transform="translate(0.5,300.5)"><path class="background" d="M0,0h0v0h0Z" style="pointer-events: none; fill: none;"></path><g><g class="mark-rule role-axis-tick" style="pointer-events: none;"><line transform="translate(0,0)" x2="0" y2="5" style="fill: none; stroke: #888; stroke-width: 1; opacity: 1;"></line><line transform="translate(50,0)" x2="0" y2="5" style="fill: none; stroke: #888; stroke-width: 1; opacity: 1;"></line><line transform="translate(100,0)" x2="0" y2="5" style="fill: none; stroke: #888; stroke-width: 1; opacity: 1;"></line><line transform="translate(150,0)" x2="0" y2="5" style="fill: none; stroke: #888; stroke-width: 1; opacity: 1;"></line><line transform="translate(200,0)" x2="0" y2="5" style="fill: none; stroke: #888; stroke-width: 1; opacity: 1;"></line><line transform="translate(250,0)" x2="0" y2="5" style="fill: none; stroke: #888; stroke-width: 1; opacity: 1;"></line><line transform="translate(300,0)" x2="0" y2="5" style="fill: none; stroke: #888; stroke-width: 1; opacity: 1;"></line><line transform="translate(350,0)" x2="0" y2="5" style="fill: none; stroke: #888; stroke-width: 1; opacity: 1;"></line><line transform="translate(400,0)" x2="0" y2="5" style="fill: none; stroke: #888; stroke-width: 1; opacity: 1;"></line></g><g class="mark-text role-axis-label" style="pointer-events: none;"><text text-anchor="start" transform="translate(0,19)" style="font-family: sans-serif; font-size: 15px; fill: #000; opacity: 1;">-4</text><text text-anchor="middle" transform="translate(50,19)" style="font-family: sans-serif; font-size: 15px; fill: #000; opacity: 1;">-3</text><text text-anchor="middle" transform="translate(100,19)" style="font-family: sans-serif; font-size: 15px; fill: #000; opacity: 1;">-2</text><text text-anchor="middle" transform="translate(150,19)" style="font-family: sans-serif; font-size: 15px; fill: #000; opacity: 1;">-1</text><text text-anchor="middle" transform="translate(200,19)" style="font-family: sans-serif; font-size: 15px; fill: #000; opacity: 1;">0</text><text text-anchor="middle" transform="translate(250,19)" style="font-family: sans-serif; font-size: 15px; fill: #000; opacity: 1;">1</text><text text-anchor="middle" transform="translate(300,19)" style="font-family: sans-serif; font-size: 15px; fill: #000; opacity: 1;">2</text><text text-anchor="middle" transform="translate(350,19)" style="font-family: sans-serif; font-size: 15px; fill: #000; opacity: 1;">3</text><text text-anchor="end" transform="translate(400,19)" style="font-family: sans-serif; font-size: 15px; fill: #000; opacity: 1;">4</text></g><g class="mark-rule role-axis-domain" style="pointer-events: none;"><line transform="translate(0,0)" x2="400" y2="0" style="fill: none; stroke: #888; stroke-width: 1; opacity: 1;"></line></g><g class="mark-text role-axis-title" style="pointer-events: none;"><text text-anchor="middle" transform="translate(200,38)" style="font-family: sans-serif; font-size: 15px; font-weight: bold; fill: #000; opacity: 1;">z-score of ln(RPKM)</text></g></g><path class="foreground" d="" style="pointer-events: none; display: none; fill: none;"></path></g></g><g class="mark-group role-axis"><g transform="translate(0.5,0.5)"><path class="background" d="M0,0h0v0h0Z" style="pointer-events: none; fill: none;"></path><g><g class="mark-rule role-axis-tick" style="pointer-events: none;"><line transform="translate(0,300)" x2="-5" y2="0" style="fill: none; stroke: #888; stroke-width: 1; opacity: 1;"></line><line transform="translate(0,270)" x2="-5" y2="0" style="fill: none; stroke: #888; stroke-width: 1; opacity: 1;"></line><line transform="translate(0,240)" x2="-5" y2="0" style="fill: none; stroke: #888; stroke-width: 1; opacity: 1;"></line><line transform="translate(0,210)" x2="-5" y2="0" style="fill: none; stroke: #888; stroke-width: 1; opacity: 1;"></line><line transform="translate(0,180)" x2="-5" y2="0" style="fill: none; stroke: #888; stroke-width: 1; opacity: 1;"></line><line transform="translate(0,150)" x2="-5" y2="0" style="fill: none; stroke: #888; stroke-width: 1; opacity: 1;"></line><line transform="translate(0,120)" x2="-5" y2="0" style="fill: none; stroke: #888; stroke-width: 1; opacity: 1;"></line><line transform="translate(0,90)" x2="-5" y2="0" style="fill: none; stroke: #888; stroke-width: 1; opacity: 1;"></line><line transform="translate(0,60)" x2="-5" y2="0" style="fill: none; stroke: #888; stroke-width: 1; opacity: 1;"></line><line transform="translate(0,30)" x2="-5" y2="0" style="fill: none; stroke: #888; stroke-width: 1; opacity: 1;"></line><line transform="translate(0,0)" x2="-5" y2="0" style="fill: none; stroke: #888; stroke-width: 1; opacity: 1;"></line></g><g class="mark-text role-axis-label" style="pointer-events: none;"><text text-anchor="end" transform="translate(-7,305)" style="font-family: sans-serif; font-size: 15px; fill: #000; opacity: 1;">0.00</text><text text-anchor="end" transform="translate(-7,275)" style="font-family: sans-serif; font-size: 15px; fill: #000; opacity: 1;">0.05</text><text text-anchor="end" transform="translate(-7,245)" style="font-family: sans-serif; font-size: 15px; fill: #000; opacity: 1;">0.10</text><text text-anchor="end" transform="translate(-7,215)" style="font-family: sans-serif; font-size: 15px; fill: #000; opacity: 1;">0.15</text><text text-anchor="end" transform="translate(-7,185)" style="font-family: sans-serif; font-size: 15px; fill: #000; opacity: 1;">0.20</text><text text-anchor="end" transform="translate(-7,155)" style="font-family: sans-serif; font-size: 15px; fill: #000; opacity: 1;">0.25</text><text text-anchor="end" transform="translate(-7,125)" style="font-family: sans-serif; font-size: 15px; fill: #000; opacity: 1;">0.30</text><text text-anchor="end" transform="translate(-7,95.00000000000001)" style="font-family: sans-serif; font-size: 15px; fill: #000; opacity: 1;">0.35</text><text text-anchor="end" transform="translate(-7,64.99999999999999)" style="font-family: sans-serif; font-size: 15px; fill: #000; opacity: 1;">0.40</text><text text-anchor="end" transform="translate(-7,34.99999999999999)" style="font-family: sans-serif; font-size: 15px; fill: #000; opacity: 1;">0.45</text><text text-anchor="end" transform="translate(-7,5)" style="font-family: sans-serif; font-size: 15px; fill: #000; opacity: 1;">0.50</text></g><g class="mark-rule role-axis-domain" style="pointer-events: none;"><line transform="translate(0,300)" x2="0" y2="-300" style="fill: none; stroke: #888; stroke-width: 1; opacity: 1;"></line></g><g class="mark-text role-axis-title" style="pointer-events: none;"><text text-anchor="middle" transform="translate(-40.1943359375,150) rotate(-90) translate(0,-3)" style="font-family: sans-serif; font-size: 15px; font-weight: bold; fill: #000; opacity: 1;">Density</text></g></g><path class="foreground" d="" style="pointer-events: none; display: none; fill: none;"></path></g></g><g class="mark-rule role-mark layer_0_marks"><line transform="translate(202.82540578821457,300)" x2="0" y2="-300" style="fill: none; stroke: #4c78a8; stroke-width: 3;"></line><line transform="translate(192.3955552697017,300)" x2="0" y2="-300" style="fill: none; stroke: #f58518; stroke-width: 3;"></line></g><g class="mark-group role-scope layer_1_pathgroup"><g transform="translate(0,0)"><path class="background" d="M0,0h400v300h-400Z" style="fill: none;"></path><g><g class="mark-area role-mark layer_1_marks"><path d="M6.691171190271961,296.4185611042002L8.400443354429843,296.4555866079829L10.109715518587725,296.57068861476955L13.528259846903467,296.9946154634505L20.365348503534975,298.161952200747L23.78389283185074,298.6490643864812L27.202437160166482,298.9757878270203L34.03952581679799,299.19771188242447L47.713703130061006,299.0143044086866L51.13224745837677,298.8035409091723L54.55079178669251,298.4080247219864L57.969336115008254,297.7670261828061L61.387880443324015,296.8471129127523L64.80642477163978,295.6443772400515L68.22496909995553,294.1700117781413L71.64351342827126,292.42452315959065L73.35278559242914,291.44120286533513L75.06205775658702,290.37402414878227L76.77132992074492,289.21234862906726L78.4806020849028,287.944022114L80.18987424906068,286.5565334674076L81.89914641321853,285.03836232318844L85.31769074153428,281.5768617842133L87.02696290569216,279.6267494502587L88.73623506985004,277.5337328189236L90.44550723400792,275.3064198900574L92.15477939816581,272.9578088554078L93.8640515623237,270.50438364790807L95.57332372648155,267.96488932323194L102.41041238311306,257.31862506836075L109.24750103974455,246.4162250806567L112.66604536806031,240.8018473977725L116.08458969637606,234.87123947839177L117.79386186053394,231.72211043543643L119.50313402469179,228.41724723568507L122.92167835300756,221.268339596439L124.63095051716545,217.4079423168543L126.34022268132333,213.36293554905473L129.75876700963906,204.8073005745309L136.59585566627058,187.04403290972323L140.01439999458634,178.72768349020888L141.72367215874422,174.88855447512898L143.4329443229021,171.30175752440186L146.85148865121784,164.9068367583332L148.56076081537572,162.06813632306836L150.2700329795336,159.42461367933555L153.68857730784936,154.53873923421284L157.1071216361651,149.8730924492272L170.7812989494281,130.63503311401493L172.490571113586,128.44274440964284L174.19984327774384,126.39535204095196L175.90911544190172,124.50875887261674L177.61838760605963,122.78692688352407L179.3276597702175,121.22058596281072L181.0369319343754,119.78703698643129L184.45547626269112,117.16737810890515L187.87402059100688,114.54301770497861L189.58329275516476,113.09264165975428L191.29256491932261,111.48408773731681L193.0018370834805,109.67967572004153L194.7111092476384,107.65534474876694L196.42038141179628,105.40265389266494L198.12965357595417,102.92925038765419L201.54819790426987,97.42338744835675L204.96674223258563,91.44812605152896L208.38528656090142,85.39899804257682L211.80383088921712,79.65888911347139L213.513103053375,77.01082534467602L215.22237521753289,74.56325112523784L216.93164738169077,72.35602581602242L218.64091954584862,70.4314304068809L220.3501917100065,68.83499102092657L222.05946387416438,67.61514046801103L223.76873603832226,66.8216399216299L225.47800820248014,66.5029579125021L227.18728036663802,66.70302723857833L228.8965525307959,67.45792271662049L230.60582469495378,68.79300164186508L232.31509685911166,70.72093402336336L234.02436902326954,73.24085845497787L235.73364118742742,76.33868491369736L237.4429133515853,79.98838076393365L239.1521855157432,84.15395883184131L242.57072984405897,93.85338271664749L245.98927417237468,105.04116737236103L249.4078185006904,117.30993511255096L252.82636282900617,130.29444733597762L266.5005401422692,184.43321168603944L268.20981230642707,191.0665274370462L269.91908447058495,197.59314739317512L271.62835663474283,203.98870363435643L273.3376287989007,210.22987235231847L275.0469009630586,216.29510293376165L276.75617312721647,222.16498029349742L278.46544529137435,227.82214960982446L280.17471745553223,233.2508720511735L283.59326178384794,243.3644453780047L287.01180611216375,252.39242082828312L290.4303504404795,260.2344411446476L293.8488947687952,266.8338353575338L295.5581669329531,269.6714808017709L297.267439097111,272.21511850600683L300.6859834254267,276.49228489099636L304.10452775374245,279.8294156071942L305.8137999179003,281.1934230703028L307.5230720820582,282.37192813494994L309.2323442462161,283.37121554455643L310.94161641037397,284.192404048796L312.65088857453185,284.8329103706696L314.36016073868973,285.2887222662473L317.7787050670055,285.6396996976842L319.48797723116337,285.5445686212083L321.19724939532125,285.2885834734538L322.90652155947913,284.898145217679L324.615793723637,284.40912852924333L328.0343380519527,283.3179101054789L331.4528823802685,282.42120235157313L333.16215454442636,282.1725613329815L334.87142670858424,282.11277478973113L336.5806988727421,282.27034986884865L338.2899710369,282.6603613761525L339.9992432010579,283.2833894289302L341.70851536521576,284.1257058609934L343.41778752937364,285.160684765674L345.1270596935315,286.3512713736876L348.54560402184734,289.0187654576278L348.54560402184734,300L345.1270596935315,300L343.41778752937364,300L341.70851536521576,300L339.9992432010579,300L338.2899710369,300L336.5806988727421,300L334.87142670858424,300L333.16215454442636,300L331.4528823802685,300L328.0343380519527,300L324.615793723637,300L322.90652155947913,300L321.19724939532125,300L319.48797723116337,300L317.7787050670055,300L314.36016073868973,300L312.65088857453185,300L310.94161641037397,300L309.2323442462161,300L307.5230720820582,300L305.8137999179003,300L304.10452775374245,300L300.6859834254267,300L297.267439097111,300L295.5581669329531,300L293.8488947687952,300L290.4303504404795,300L287.01180611216375,300L283.59326178384794,300L280.17471745553223,300L278.46544529137435,300L276.75617312721647,300L275.0469009630586,300L273.3376287989007,300L271.62835663474283,300L269.91908447058495,300L268.20981230642707,300L266.5005401422692,300L252.82636282900617,300L249.4078185006904,300L245.98927417237468,300L242.57072984405897,300L239.1521855157432,300L237.4429133515853,300L235.73364118742742,300L234.02436902326954,300L232.31509685911166,300L230.60582469495378,300L228.8965525307959,300L227.18728036663802,300L225.47800820248014,300L223.76873603832226,300L222.05946387416438,300L220.3501917100065,300L218.64091954584862,300L216.93164738169077,300L215.22237521753289,300L213.513103053375,300L211.80383088921712,300L208.38528656090142,300L204.96674223258563,300L201.54819790426987,300L198.12965357595417,300L196.42038141179628,300L194.7111092476384,300L193.0018370834805,300L191.29256491932261,300L189.58329275516476,300L187.87402059100688,300L184.45547626269112,300L181.0369319343754,300L179.3276597702175,300L177.61838760605963,300L175.90911544190172,300L174.19984327774384,300L172.490571113586,300L170.7812989494281,300L157.1071216361651,300L153.68857730784936,300L150.2700329795336,300L148.56076081537572,300L146.85148865121784,300L143.4329443229021,300L141.72367215874422,300L140.01439999458634,300L136.59585566627058,300L129.75876700963906,300L126.34022268132333,300L124.63095051716545,300L122.92167835300756,300L119.50313402469179,300L117.79386186053394,300L116.08458969637606,300L112.66604536806031,300L109.24750103974455,300L102.41041238311306,300L95.57332372648155,300L93.8640515623237,300L92.15477939816581,300L90.44550723400792,300L88.73623506985004,300L87.02696290569216,300L85.31769074153428,300L81.89914641321853,300L80.18987424906068,300L78.4806020849028,300L76.77132992074492,300L75.06205775658702,300L73.35278559242914,300L71.64351342827126,300L68.22496909995553,300L64.80642477163978,300L61.387880443324015,300L57.969336115008254,300L54.55079178669251,300L51.13224745837677,300L47.713703130061006,300L34.03952581679799,300L27.202437160166482,300L23.78389283185074,300L20.365348503534975,300L13.528259846903467,300L10.109715518587725,300L8.400443354429843,300L6.691171190271961,300Z" style="fill: #4c78a8; opacity: 0.35;"></path></g></g><path class="foreground" d="" style="display: none; fill: none;"></path></g><g transform="translate(0,0)"><path class="background" d="M0,0h400v300h-400Z" style="fill: none;"></path><g><g class="mark-area role-mark layer_1_marks"><path d="M6.691171190271961,297.1881632358693L10.198522126827946,297.3233778070484L13.705873063383933,297.6912409334046L20.720574936495908,298.721826160631L27.73527680960788,299.521210306383L34.74997868271983,299.864821122219L48.77938242894375,299.63907765059764L52.286733365499735,299.3528067369894L55.79408430205572,298.91356929554746L59.30143523861171,298.28806485948354L62.8087861751677,297.4516974702392L66.31613711172368,296.3917691562164L69.82348804827967,295.108317241561L73.33083898483565,293.6131976411943L76.83818992139165,291.9260307948607L80.34554085794761,290.0632091469412L83.85289179450359,288.01669822060734L87.36024273105957,285.72472752076675L90.86759366761554,283.0451146072927L92.62126913589354,281.4913115919592L94.37494460417153,279.749278497769L97.88229554072751,275.55463948910773L99.63597100900552,273.03503850856526L101.3896464772835,270.19962064103976L103.14332194556151,267.03492153928846L104.89699741383949,263.53988302778924L106.65067288211749,259.72663038829126L108.40434835039548,255.61972615966005L110.15802381867346,251.25383977221216L111.91169928695146,246.67002647345214L113.66537475522946,241.9110578749469L115.41905022350744,237.01643858222621L117.17272569178543,232.01783455148316L118.92640116006343,226.93560386610193L120.68007662834144,221.7769613166351L122.43375209661941,216.5360546219507L125.94110303317541,205.7321255124729L127.69477850145338,200.1173006742534L129.44845396973136,194.32647363888626L131.20212943800937,188.34213280685717L132.95580490628737,182.15884591717295L134.70948037456535,175.7869961580541L136.46315584284335,169.25543075783997L139.97050677939933,155.927937527546L141.7241822476773,149.28763058775854L143.4778577159553,142.79406656651003L145.2315331842333,136.55935460929487L146.9852086525113,130.69862591163854L148.7388841207893,125.32149684294315L150.4925595890673,120.52256271727524L153.99991052562325,112.90618057306396L155.75358599390125,110.12307414197811L157.50726146217923,107.97736156450858L161.0146123987352,105.21207113525173L162.7682878670132,104.3136435304799L164.52196333529122,103.51340225502254L168.0293142718472,101.49208958300221L169.78298974012517,99.93838318308264L171.53666520840315,97.8392158520615L175.04401614495916,91.6613267354113L176.79769161323713,87.51513901887323L178.55136708151514,82.6921376168707L180.30504254979314,77.2664764045188L182.05871801807112,71.35024576364964L189.07341989118308,45.94515521912472L190.82709535946108,40.050742118109554L192.5807708277391,34.67992365449529L194.3344462960171,29.969895732159337L196.08812176429507,26.02863101924414L197.84179723257304,22.932226642915023L199.59547270085105,20.724897021553744L201.34914816912905,19.421242541589145L203.10282363740706,19.010154954839496L206.61017457396304,20.721447566279426L210.117525510519,25.435993312634743L213.624876447075,32.60142882762602L217.13222738363095,41.635488828831825L218.88590285190895,46.68660081788221L220.63957832018693,52.02266092034753L222.39325378846493,57.60723046836059L224.14692925674294,63.42006554507111L225.90060472502094,69.4574702042536L227.65428019329894,75.73056307521988L229.4079556615769,82.26145242208956L231.1616311298549,89.07774048995411L232.9153065981329,96.20613659759357L234.66898206641088,103.66615338083075L236.42265753468888,111.46483939017254L238.17633300296689,119.59327021475667L239.9300084712449,128.02514217703373L241.6836839395229,136.71738816548404L243.43735940780084,145.61237420461092L245.19103487607885,154.64102592435913L248.69838581263483,172.78592479381717L250.45206128091283,181.73590115940263L252.20573674919083,190.49197165080395L255.71308768574679,207.09935789584824L257.46676315402476,214.80378440091357L259.22043862230277,222.0269360422389L260.97411409058077,228.72507148403997L262.7277895588588,234.87269006202854L264.4814650271367,240.4649727806415L266.2351404954147,245.51856433125073L267.98881596369273,250.07023518452093L269.7424914319707,254.17331053661755L271.4961669002487,257.89216062532336L273.2498423685267,261.2954206963567L275.0035178368047,264.4488644672724L276.7571933050827,267.40893785301375L278.51086877336064,270.2178560379119L280.26454424163865,272.9009030971654L282.01821970991665,275.4662065177731L283.77189517819465,277.9068621257102L285.52557064647266,280.2049305710399L287.27924611475066,282.3365729477485L290.7865970513066,286.0077412292144L292.5402725195846,287.51558011529164L294.29394798786257,288.7993825899268L297.8012989244186,290.7397412728785L299.5549743926966,291.4394450581762L301.3086498609745,291.99589447638266L303.06232532925253,292.4384286301192L304.8160007975305,292.79430369313496L308.3233517340865,293.3344989745631L315.3380536071985,294.10225033690983L322.35275548031046,294.84996090606455L329.3674573534224,295.96128148461474L336.3821592265344,297.3703916140932L339.8895101630904,297.9899305595402L343.39686109964634,298.450062786576L350.4115629727583,298.8680877377928L357.42626484587026,298.9814373172848L357.42626484587026,300L350.4115629727583,300L343.39686109964634,300L339.8895101630904,300L336.3821592265344,300L329.3674573534224,300L322.35275548031046,300L315.3380536071985,300L308.3233517340865,300L304.8160007975305,300L303.06232532925253,300L301.3086498609745,300L299.5549743926966,300L297.8012989244186,300L294.29394798786257,300L292.5402725195846,300L290.7865970513066,300L287.27924611475066,300L285.52557064647266,300L283.77189517819465,300L282.01821970991665,300L280.26454424163865,300L278.51086877336064,300L276.7571933050827,300L275.0035178368047,300L273.2498423685267,300L271.4961669002487,300L269.7424914319707,300L267.98881596369273,300L266.2351404954147,300L264.4814650271367,300L262.7277895588588,300L260.97411409058077,300L259.22043862230277,300L257.46676315402476,300L255.71308768574679,300L252.20573674919083,300L250.45206128091283,300L248.69838581263483,300L245.19103487607885,300L243.43735940780084,300L241.6836839395229,300L239.9300084712449,300L238.17633300296689,300L236.42265753468888,300L234.66898206641088,300L232.9153065981329,300L231.1616311298549,300L229.4079556615769,300L227.65428019329894,300L225.90060472502094,300L224.14692925674294,300L222.39325378846493,300L220.63957832018693,300L218.88590285190895,300L217.13222738363095,300L213.624876447075,300L210.117525510519,300L206.61017457396304,300L203.10282363740706,300L201.34914816912905,300L199.59547270085105,300L197.84179723257304,300L196.08812176429507,300L194.3344462960171,300L192.5807708277391,300L190.82709535946108,300L189.07341989118308,300L182.05871801807112,300L180.30504254979314,300L178.55136708151514,300L176.79769161323713,300L175.04401614495916,300L171.53666520840315,300L169.78298974012517,300L168.0293142718472,300L164.52196333529122,300L162.7682878670132,300L161.0146123987352,300L157.50726146217923,300L155.75358599390125,300L153.99991052562325,300L150.4925595890673,300L148.7388841207893,300L146.9852086525113,300L145.2315331842333,300L143.4778577159553,300L141.7241822476773,300L139.97050677939933,300L136.46315584284335,300L134.70948037456535,300L132.95580490628737,300L131.20212943800937,300L129.44845396973136,300L127.69477850145338,300L125.94110303317541,300L122.43375209661941,300L120.68007662834144,300L118.92640116006343,300L117.17272569178543,300L115.41905022350744,300L113.66537475522946,300L111.91169928695146,300L110.15802381867346,300L108.40434835039548,300L106.65067288211749,300L104.89699741383949,300L103.14332194556151,300L101.3896464772835,300L99.63597100900552,300L97.88229554072751,300L94.37494460417153,300L92.62126913589354,300L90.86759366761554,300L87.36024273105957,300L83.85289179450359,300L80.34554085794761,300L76.83818992139165,300L73.33083898483565,300L69.82348804827967,300L66.31613711172368,300L62.8087861751677,300L59.30143523861171,300L55.79408430205572,300L52.286733365499735,300L48.77938242894375,300L34.74997868271983,300L27.73527680960788,300L20.720574936495908,300L13.705873063383933,300L10.198522126827946,300L6.691171190271961,300Z" style="fill: #f58518; opacity: 0.35;"></path></g></g><path class="foreground" d="" style="display: none; fill: none;"></path></g></g><g class="mark-group role-legend"><g transform="translate(287,18)"><path class="background" d="M10.5,0.5L85.5,0.5C91.01915024494,0.5,95.5,4.98084975506,95.5,10.5L95.5,55.5C95.5,61.01915024494,91.01915024494,65.5,85.5,65.5L10.5,65.5C4.98084975506,65.5,0.5,61.01915024494,0.5,55.5L0.5,10.5C0.5,4.98084975506,4.98084975506,0.5,10.5,0.5Z" style="pointer-events: none; fill: white; stroke: gray;"></path><g><g class="mark-group role-legend-entry"><g transform="translate(10,26)"><path class="background" d="M0,0h0v0h0Z" style="pointer-events: none; fill: none;"></path><g><g class="mark-group role-scope"><g transform="translate(0,0)"><path class="background" d="M0,0h74.3642578125v12.5h-74.3642578125Z" style="pointer-events: none; fill: none; opacity: 1;"></path><g><g class="mark-symbol role-legend-symbol" style="pointer-events: none;"><path transform="translate(6,6)" d="M-5,-5h10v10h-10Z" style="fill: #4c78a8; stroke: #4c78a8; stroke-width: 1.5; opacity: 0.35;"></path></g><g class="mark-text role-legend-label" style="pointer-events: none;"><text text-anchor="start" transform="translate(16,9)" style="font-family: sans-serif; font-size: 10px; fill: #000; opacity: 1;">Codirectional</text></g></g><path class="foreground" d="" style="pointer-events: none; display: none; fill: none;"></path></g><g transform="translate(0,16)"><path class="background" d="M0,0h74.3642578125v12.5h-74.3642578125Z" style="pointer-events: none; fill: none; opacity: 1;"></path><g><g class="mark-symbol role-legend-symbol" style="pointer-events: none;"><path transform="translate(6,6)" d="M-5,-5h10v10h-10Z" style="fill: #f58518; stroke: #f58518; stroke-width: 1.5; opacity: 0.35;"></path></g><g class="mark-text role-legend-label" style="pointer-events: none;"><text text-anchor="start" transform="translate(16,9)" style="font-family: sans-serif; font-size: 10px; fill: #000; opacity: 1;">Head-on</text></g></g><path class="foreground" d="" style="pointer-events: none; display: none; fill: none;"></path></g></g></g><path class="foreground" d="" style="pointer-events: none; display: none; fill: none;"></path></g></g><g class="mark-text role-legend-title" style="pointer-events: none;"><text text-anchor="start" transform="translate(10,19)" style="font-family: sans-serif; font-size: 11px; font-weight: bold; fill: #000; opacity: 1;">Direction</text></g></g><path class="foreground" d="" style="pointer-events: none; display: none; fill: none;"></path></g></g></g><path class="foreground" d="" style="display: none; fill: none;"></path></g></g></g></svg>